<?xml version="1.0" encoding="UTF-8" standalone="no"?>
<!-- Created with Inkscape (http://www.inkscape.org/) -->

<svg
   xmlns:dc="http://purl.org/dc/elements/1.1/"
   xmlns:cc="http://creativecommons.org/ns#"
   xmlns:rdf="http://www.w3.org/1999/02/22-rdf-syntax-ns#"
   xmlns:svg="http://www.w3.org/2000/svg"
   xmlns="http://www.w3.org/2000/svg"
   xmlns:sodipodi="http://sodipodi.sourceforge.net/DTD/sodipodi-0.dtd"
   xmlns:inkscape="http://www.inkscape.org/namespaces/inkscape"
   version="1.1"
   id="svg4773"
   width="1653.3333"
   height="694.66669"
   viewBox="0 0 1653.3333 694.66669"
   sodipodi:docname="bag - Copy.svg"
   inkscape:version="0.92.1 r15371">
  <metadata
     id="metadata4779">
    <rdf:RDF>
      <cc:Work
         rdf:about="">
        <dc:format>image/svg+xml</dc:format>
        <dc:type
           rdf:resource="http://purl.org/dc/dcmitype/StillImage" />
        <dc:title></dc:title>
      </cc:Work>
    </rdf:RDF>
  </metadata>
  <defs
     id="defs4777" />
  <sodipodi:namedview
     pagecolor="#ffffff"
     bordercolor="#666666"
     borderopacity="1"
     objecttolerance="10"
     gridtolerance="10"
     guidetolerance="10"
     inkscape:pageopacity="0"
     inkscape:pageshadow="2"
     inkscape:window-width="1440"
     inkscape:window-height="838"
     id="namedview4775"
     showgrid="false"
     inkscape:zoom="0.18991936"
     inkscape:cx="297.49468"
     inkscape:cy="347.33334"
     inkscape:window-x="-8"
     inkscape:window-y="-8"
     inkscape:window-maximized="1"
     inkscape:current-layer="g4783" />
  <g
     id="g4783"
     transform="translate(4.739376e-5,1.9906947e-5)">
    <path
       style="fill:#d3cecd;stroke-width:1.33333337"
       d="m 840.76189,685.90478 c -0.49043,-1.95401 -0.63455,-3.80989 -0.32025,-4.12418 0.31428,-0.31428 0.97268,1.02732 1.4631,2.98133 0.49043,1.95401 0.63455,3.80989 0.32026,4.12419 -0.31428,0.31428 -0.97268,-1.02732 -1.46311,-2.98134 z m -3.32331,-12.01586 c 0.064,-1.55327 0.37992,-1.8692 0.80555,-0.80556 0.38516,0.96249 0.3378,2.1125 -0.1052,2.55556 -0.44305,0.44305 -0.75819,-0.34446 -0.70029,-1.75 z m -4.67669,-14.6508 c -0.49043,-1.95402 -0.63455,-3.8099 -0.32025,-4.12419 0.31428,-0.31428 0.97268,1.02732 1.4631,2.98133 0.49043,1.95402 0.63455,3.8099 0.32026,4.12419 -0.31428,0.31428 -0.97268,-1.02732 -1.46311,-2.98133 z m -4,-13.33334 c -0.49043,-1.95401 -0.63455,-3.80989 -0.32025,-4.12419 0.31428,-0.31428 0.97268,1.02732 1.4631,2.98134 0.49043,1.95401 0.63455,3.80989 0.32026,4.12419 -0.31428,0.31428 -0.97268,-1.02732 -1.46311,-2.98134 z m -4,-13.33333 c -0.49043,-1.95402 -0.63455,-3.8099 -0.32025,-4.12419 0.31428,-0.31428 0.97268,1.02732 1.4631,2.98133 0.49043,1.95402 0.63455,3.8099 0.32026,4.12419 -0.31428,0.31428 -0.97268,-1.02732 -1.46311,-2.98133 z m -4,-13.33334 c -0.49043,-1.95401 -0.63455,-3.80989 -0.32025,-4.12418 0.31428,-0.31428 0.97268,1.02732 1.4631,2.98133 0.49043,1.95401 0.63455,3.80989 0.32026,4.12419 -0.31428,0.31428 -0.97268,-1.02732 -1.46311,-2.98134 z m -4,-13.33333 c -0.49043,-1.95401 -0.63455,-3.80989 -0.32025,-4.12419 0.31428,-0.31428 0.97268,1.02732 1.4631,2.98134 0.49043,1.95401 0.63455,3.80989 0.32026,4.12418 -0.31428,0.31428 -0.97268,-1.02732 -1.46311,-2.98133 z m -4,-13.33333 c -0.49043,-1.95402 -0.63455,-3.8099 -0.32025,-4.12419 0.31428,-0.31428 0.97268,1.02732 1.4631,2.98133 0.49043,1.95402 0.63455,3.8099 0.32026,4.12419 -0.31428,0.31428 -0.97268,-1.02732 -1.46311,-2.98133 z m -4,-13.33334 c -0.49043,-1.95401 -0.63455,-3.80989 -0.32025,-4.12418 0.31428,-0.31428 0.97268,1.02732 1.4631,2.98133 0.49043,1.95401 0.63455,3.80989 0.32026,4.12419 -0.31428,0.31428 -0.97268,-1.02732 -1.46311,-2.98134 z m -4,-13.33333 c -0.49043,-1.95401 -0.63455,-3.80989 -0.32025,-4.12419 0.31428,-0.31428 0.97268,1.02732 1.4631,2.98134 0.49043,1.95401 0.63455,3.80989 0.32026,4.12418 -0.31428,0.31428 -0.97268,-1.02732 -1.46311,-2.98133 z m -4,-13.33333 c -0.49043,-1.95402 -0.63455,-3.8099 -0.32025,-4.12419 0.31428,-0.31428 0.97268,1.02732 1.4631,2.98133 0.49043,1.95402 0.63455,3.8099 0.32026,4.12419 -0.31428,0.31428 -0.97268,-1.02732 -1.46311,-2.98133 z m -4.64069,-15.35931 c -0.90166,-3.00946 -1.39392,-5.71719 -1.09392,-6.01719 0.3,-0.3 1.28317,1.91683 2.18482,4.92628 0.90166,3.00945 1.39392,5.71719 1.09392,6.01719 -0.3,0.3 -1.28317,-1.91683 -2.18482,-4.92628 z m -4,-13.33334 c -0.90166,-3.00945 -1.39392,-5.71718 -1.09392,-6.01718 0.3,-0.3 1.28317,1.91682 2.18482,4.92628 0.90166,3.00945 1.39392,5.71718 1.09392,6.01718 -0.3,0.3 -1.28317,-1.91682 -2.18482,-4.92628 z m -4.69264,-15.30736 c -0.49043,-1.95401 -0.63455,-3.80989 -0.32026,-4.12418 0.31428,-0.31428 0.97268,1.02732 1.46311,2.98133 0.49043,1.95401 0.63455,3.80989 0.32025,4.12419 -0.31428,0.31428 -0.97268,-1.02732 -1.4631,-2.98134 z m -4,-13.33333 c -0.49043,-1.95401 -0.63455,-3.80989 -0.32026,-4.12419 0.31428,-0.31428 0.97268,1.02732 1.46311,2.98134 0.49043,1.95401 0.63455,3.80989 0.32025,4.12418 -0.31428,0.31428 -0.97268,-1.02732 -1.4631,-2.98133 z m -4,-13.33333 c -0.49043,-1.95402 -0.63455,-3.8099 -0.32026,-4.12419 0.31428,-0.31428 0.97268,1.02732 1.46311,2.98133 0.49043,1.95402 0.63455,3.8099 0.32025,4.12419 -0.31428,0.31428 -0.97268,-1.02732 -1.4631,-2.98133 z m -4,-13.33334 c -0.49043,-1.95401 -0.63455,-3.80989 -0.32026,-4.12418 0.31428,-0.31428 0.97268,1.02732 1.46311,2.98133 0.49043,1.95401 0.63455,3.80989 0.32025,4.12419 -0.31428,0.31428 -0.97268,-1.02732 -1.4631,-2.98134 z m -4,-13.33333 c -0.49043,-1.95401 -0.63455,-3.80989 -0.32026,-4.12419 0.31428,-0.31428 0.97268,1.02732 1.46311,2.98134 0.49043,1.95401 0.63455,3.80989 0.32025,4.12418 -0.31428,0.31428 -0.97268,-1.02732 -1.4631,-2.98133 z m -4,-13.33334 c -0.49043,-1.95401 -0.63455,-3.80989 -0.32026,-4.12418 0.31428,-0.31428 0.97268,1.02732 1.46311,2.98133 0.49043,1.95401 0.63455,3.80989 0.32025,4.12419 -0.31428,0.31428 -0.97268,-1.02732 -1.4631,-2.98134 z m -4.6407,-15.3593 c -0.90165,-3.00946 -1.39392,-5.71719 -1.09392,-6.01719 0.3,-0.3 1.28318,1.91683 2.18483,4.92628 0.90165,3.00945 1.39392,5.71719 1.09392,6.01719 -0.3,0.3 -1.28317,-1.91683 -2.18483,-4.92628 z m -4,-13.33334 c -0.90165,-3.00945 -1.39392,-5.71718 -1.09392,-6.01718 0.3,-0.3 1.28318,1.91682 2.18483,4.92628 0.90165,3.00945 1.39392,5.71718 1.09392,6.01718 -0.3,0.3 -1.28317,-1.91682 -2.18483,-4.92628 z m -4,-13.33333 c -0.90165,-3.00945 -1.39392,-5.71719 -1.09392,-6.01719 0.3,-0.3 1.28318,1.91683 2.18483,4.92628 0.90165,3.00946 1.39392,5.71719 1.09392,6.01719 -0.3,0.3 -1.28317,-1.91683 -2.18483,-4.92628 z m -4,-13.33333 c -0.90165,-3.00946 -1.39392,-5.71719 -1.09392,-6.01719 0.3,-0.3 1.28318,1.91683 2.18483,4.92628 0.90165,3.00945 1.39392,5.71719 1.09392,6.01719 -0.3,0.3 -1.28317,-1.91683 -2.18483,-4.92628 z m -4.69264,-15.30736 c -0.49042,-1.95402 -0.63454,-3.8099 -0.32025,-4.12419 0.31428,-0.31428 0.97268,1.02732 1.46311,2.98133 0.49042,1.95402 0.63454,3.8099 0.32025,4.12419 -0.31428,0.31428 -0.97268,-1.02732 -1.46311,-2.98133 z m -3.99999,-13.33334 c -0.49043,-1.95401 -0.63455,-3.80989 -0.32026,-4.12418 0.31428,-0.31428 0.97268,1.02732 1.46311,2.98133 0.49043,1.95401 0.63455,3.80989 0.32025,4.12419 -0.31428,0.31428 -0.97268,-1.02732 -1.4631,-2.98134 z m -4,-13.33333 c -0.49043,-1.95402 -0.63455,-3.8099 -0.32026,-4.12419 0.31428,-0.31428 0.97268,1.02732 1.46311,2.98133 0.49043,1.95402 0.63455,3.8099 0.32025,4.12419 -0.31428,0.31428 -0.97268,-1.02732 -1.4631,-2.98133 z m -4,-13.33334 c -0.49043,-1.95401 -0.63455,-3.80989 -0.32026,-4.12418 0.31428,-0.31428 0.97268,1.02732 1.46311,2.98133 0.49043,1.95401 0.63455,3.80989 0.32025,4.12419 -0.31428,0.31428 -0.97268,-1.02732 -1.4631,-2.98134 z m -4,-13.33333 c -0.49043,-1.95401 -0.63455,-3.80989 -0.32026,-4.12419 0.31428,-0.31428 0.97268,1.02732 1.46311,2.98134 0.49043,1.95401 0.63455,3.80989 0.32025,4.12418 -0.31428,0.31428 -0.97268,-1.02732 -1.4631,-2.98133 z m -4,-13.33333 c -0.49043,-1.95402 -0.63455,-3.8099 -0.32026,-4.12419 0.31428,-0.31428 0.97268,1.02732 1.46311,2.98133 0.49043,1.95402 0.63455,3.8099 0.32025,4.12419 -0.31428,0.31428 -0.97268,-1.02732 -1.4631,-2.98133 z m -4.6407,-15.35931 c -0.90165,-3.00945 -1.39392,-5.71719 -1.09392,-6.01719 0.3,-0.3 1.28318,1.91683 2.18483,4.92628 0.90165,3.00946 1.39392,5.71719 1.09392,6.01719 -0.3,0.3 -1.28317,-1.91683 -2.18483,-4.92628 z m -4,-13.33333 c -0.90165,-3.00946 -1.39392,-5.71719 -1.09392,-6.01719 0.3,-0.3 1.28318,1.91683 2.18483,4.92628 0.90165,3.00945 1.39392,5.71719 1.09392,6.01719 -0.3,0.3 -1.28317,-1.91683 -2.18483,-4.92628 z m -4.69264,-15.30736 c -0.49042,-1.95402 -0.63454,-3.8099 -0.32025,-4.12419 0.31428,-0.31428 0.97268,1.02732 1.46311,2.98133 0.49042,1.95402 0.63454,3.8099 0.32025,4.12419 -0.31428,0.31428 -0.97268,-1.02732 -1.46311,-2.98133 z m -4,-13.33334 c -0.49042,-1.95401 -0.63454,-3.80989 -0.32025,-4.12419 0.31428,-0.31428 0.97268,1.02732 1.46311,2.98134 0.49042,1.95401 0.63454,3.80989 0.32025,4.12419 -0.31428,0.31428 -0.97268,-1.02732 -1.46311,-2.98134 z m -4,-13.33333 c -0.49042,-1.95402 -0.63454,-3.8099 -0.32025,-4.12419 0.31428,-0.31428 0.97268,1.02732 1.46311,2.98133 0.49042,1.95402 0.63454,3.8099 0.32025,4.12419 -0.31428,0.31428 -0.97268,-1.02732 -1.46311,-2.98133 z m -4,-13.33334 c -0.49042,-1.95401 -0.63454,-3.80989 -0.32025,-4.12418 0.31428,-0.31428 0.97268,1.02732 1.46311,2.98133 0.49042,1.95401 0.63454,3.80989 0.32025,4.12419 -0.31428,0.31428 -0.97268,-1.02732 -1.46311,-2.98134 z m -4,-13.33333 c -0.49042,-1.95401 -0.63454,-3.80989 -0.32025,-4.12419 0.31428,-0.31428 0.97268,1.02732 1.46311,2.98134 0.49042,1.95401 0.63454,3.80989 0.32025,4.12418 -0.31428,0.31428 -0.97268,-1.02732 -1.46311,-2.98133 z m -4,-13.33333 c -0.49042,-1.95402 -0.63454,-3.8099 -0.32025,-4.12419 0.31428,-0.31428 0.97268,1.02732 1.46311,2.98133 0.49042,1.95402 0.63454,3.8099 0.32025,4.12419 -0.31428,0.31428 -0.97268,-1.02732 -1.46311,-2.98133 z m -4.64069,-15.35931 c -0.90165,-3.00945 -1.39392,-5.71719 -1.09392,-6.01719 0.3,-0.3 1.28317,1.91683 2.18483,4.92628 0.90165,3.00946 1.39392,5.71719 1.09392,6.01719 -0.3,0.3 -1.28318,-1.91683 -2.18483,-4.92628 z m -4,-13.33333 c -0.90165,-3.00946 -1.39392,-5.71719 -1.09392,-6.01719 0.3,-0.3 1.28317,1.91683 2.18483,4.92628 0.90165,3.00945 1.39392,5.71719 1.09392,6.01719 -0.3,0.3 -1.28318,-1.91683 -2.18483,-4.92628 z m -4,-13.33334 c -0.90165,-3.00945 -1.39392,-5.71719 -1.09392,-6.01719 0.3,-0.3 1.28317,1.91683 2.18483,4.92629 0.90165,3.00945 1.39392,5.71718 1.09392,6.01718 -0.3,0.3 -1.28318,-1.91682 -2.18483,-4.92628 z m -4.69264,-15.30736 c -0.49043,-1.95401 -0.63455,-3.8099 -0.32025,-4.12418 0.31428,-0.31429 0.97268,1.02731 1.4631,2.98133 0.49043,1.95401 0.63455,3.80989 0.32026,4.12418 -0.31428,0.31428 -0.97268,-1.02732 -1.46311,-2.98133 z m -4,-13.33333 c -0.49043,-1.95402 -0.63455,-3.8099 -0.32025,-4.12419 0.31428,-0.31428 0.97268,1.02732 1.4631,2.98133 0.49043,1.95402 0.63455,3.8099 0.32026,4.12419 -0.31428,0.31428 -0.97268,-1.02731 -1.46311,-2.98133 z m -4,-13.33333 c -0.49043,-1.95402 -0.63455,-3.80991 -0.32025,-4.12419 0.31428,-0.31429 0.97268,1.02731 1.4631,2.98133 0.49043,1.95402 0.63455,3.8099 0.32026,4.12419 -0.31428,0.31428 -0.97268,-1.02732 -1.46311,-2.98133 z m -4,-13.333339 c -0.49043,-1.954017 -0.63455,-3.809901 -0.32025,-4.124187 0.31428,-0.314285 0.97268,1.027314 1.4631,2.981331 0.49043,1.954018 0.63455,3.809902 0.32026,4.124187 -0.31428,0.314285 -0.97268,-1.027313 -1.46311,-2.981331 z m -4,-13.333334 c -0.49043,-1.954017 -0.63455,-3.809901 -0.32025,-4.124186 0.31428,-0.314286 0.97268,1.027313 1.4631,2.98133 0.49043,1.954018 0.63455,3.809902 0.32026,4.124187 -0.31428,0.314286 -0.97268,-1.027313 -1.46311,-2.981331 z m -4,-13.333333 c -0.49043,-1.954018 -0.63455,-3.809902 -0.32025,-4.124187 0.31428,-0.314285 0.97268,1.027313 1.4631,2.981331 0.49043,1.954017 0.63455,3.809901 0.32026,4.124186 -0.31428,0.314286 -0.97268,-1.027313 -1.46311,-2.98133 z M 650.09523,52.57143 c -0.49043,-1.954018 -0.63455,-3.809902 -0.32026,-4.124187 0.31428,-0.314285 0.97268,1.027313 1.46311,2.981331 0.49043,1.954017 0.63455,3.809901 0.32025,4.124187 -0.31428,0.314285 -0.97268,-1.027314 -1.4631,-2.981331 z m -4,-13.333334 c -0.49043,-1.954017 -0.63455,-3.809901 -0.32026,-4.124187 0.31428,-0.314285 0.97268,1.027314 1.46311,2.981331 0.49043,1.954017 0.63455,3.809901 0.32025,4.124187 -0.31428,0.314285 -0.97268,-1.027314 -1.4631,-2.981331 z m -4,-13.333334 c -0.49043,-1.954017 -0.63455,-3.809901 -0.32026,-4.124187 0.31428,-0.314285 0.97268,1.027314 1.46311,2.981331 0.49043,1.954018 0.63455,3.809902 0.32025,4.124187 -0.31428,0.314285 -0.97268,-1.027313 -1.4631,-2.981331 z m -4,-13.333333 c -0.49043,-1.954017 -0.63455,-3.8099018 -0.32026,-4.1241875 0.31428,-0.3142858 0.97268,1.027313 1.46311,2.9813305 0.49043,1.954018 0.63455,3.809902 0.32025,4.124187 -0.31428,0.314286 -0.97268,-1.027313 -1.4631,-2.98133 z"
       id="path4795"
       inkscape:connector-curvature="0" />
    <path
       style="fill:#a59c9b;stroke-width:1.33333337"
       d="m 758.77192,407.22224 c 0.064,-1.55327 0.37992,-1.8692 0.80554,-0.80556 0.38516,0.96249 0.3378,2.11251 -0.1052,2.55556 -0.44305,0.44305 -0.75818,-0.34445 -0.70029,-1.75 z"
       id="path4793"
       inkscape:connector-curvature="0" />
    <path
       style="fill:#847a78;stroke-width:1.33333337"
       d="m 796.10525,528.55558 c 0.064,-1.55327 0.37992,-1.8692 0.80555,-0.80556 0.38516,0.96249 0.3378,2.1125 -0.1052,2.55556 -0.44306,0.44305 -0.75819,-0.34446 -0.7003,-1.75 z m -4,-13.33334 c 0.064,-1.55326 0.37992,-1.8692 0.80555,-0.80556 0.38516,0.9625 0.3378,2.11251 -0.1052,2.55556 -0.44306,0.44306 -0.75819,-0.34445 -0.7003,-1.75 z m -4,-13.33333 c 0.064,-1.55327 0.37992,-1.8692 0.80555,-0.80556 0.38516,0.96249 0.3378,2.11251 -0.1052,2.55556 -0.44306,0.44305 -0.75819,-0.34445 -0.7003,-1.75 z m -4,-13.33333 c 0.064,-1.55327 0.37992,-1.8692 0.80555,-0.80556 0.38516,0.96249 0.3378,2.1125 -0.1052,2.55556 -0.44306,0.44305 -0.75819,-0.34446 -0.7003,-1.75 z m -4,-13.33334 c 0.064,-1.55326 0.37992,-1.8692 0.80555,-0.80556 0.38516,0.9625 0.3378,2.11251 -0.1052,2.55556 -0.44306,0.44306 -0.75819,-0.34445 -0.7003,-1.75 z m -29.33333,-97.33333 c 0.064,-1.55327 0.37992,-1.8692 0.80554,-0.80556 0.38516,0.96249 0.3378,2.1125 -0.1052,2.55556 -0.44305,0.44305 -0.75818,-0.34446 -0.70029,-1.75 z m -4,-13.33334 c 0.064,-1.55326 0.37992,-1.8692 0.80554,-0.80556 0.38516,0.9625 0.3378,2.11251 -0.1052,2.55556 -0.44305,0.44306 -0.75818,-0.34445 -0.70029,-1.75 z m -4,-13.33333 c 0.064,-1.55327 0.37992,-1.8692 0.80555,-0.80556 0.38516,0.96249 0.3378,2.11251 -0.1052,2.55556 -0.44306,0.44305 -0.75819,-0.34445 -0.7003,-1.75 z m -4,-13.33334 c 0.064,-1.55326 0.37992,-1.8692 0.80555,-0.80556 0.38516,0.9625 0.3378,2.1125 -0.1052,2.55556 -0.44306,0.44306 -0.75819,-0.34445 -0.7003,-1.75 z m -21.33333,-70.66666 c 0.064,-1.55327 0.37992,-1.8692 0.80554,-0.80556 0.38516,0.96249 0.3378,2.11249 -0.1052,2.55556 -0.44305,0.44305 -0.75818,-0.34446 -0.70029,-1.75 z m -4,-13.33334 c 0.064,-1.55326 0.37992,-1.8692 0.80554,-0.80556 0.38516,0.9625 0.3378,2.1125 -0.1052,2.55556 -0.44305,0.44306 -0.75818,-0.34445 -0.70029,-1.75 z m -4,-13.33333 c 0.064,-1.55327 0.37992,-1.8692 0.80554,-0.80556 0.38516,0.96249 0.3378,2.11249 -0.1052,2.55556 -0.44305,0.44305 -0.75818,-0.34446 -0.70029,-1.75 z M 688.10525,169.8889 c 0.064,-1.55327 0.37992,-1.8692 0.80555,-0.80556 0.38516,0.96249 0.3378,2.11249 -0.1052,2.55556 -0.44305,0.44305 -0.75819,-0.34445 -0.70029,-1.75 z m -4,-13.33333 c 0.064,-1.55327 0.37992,-1.8692 0.80555,-0.80556 0.38516,0.96249 0.3378,2.11249 -0.1052,2.55556 -0.44305,0.44305 -0.75819,-0.34446 -0.70029,-1.75 z M 662.77192,85.888892 c 0.064,-1.553257 0.37992,-1.8692 0.80555,-0.805556 0.38516,0.9625 0.3378,2.1125 -0.1052,2.555556 -0.44306,0.443055 -0.75819,-0.344445 -0.7003,-1.75 z"
       id="path4791"
       inkscape:connector-curvature="0" />
    <path
       style="fill:#625856;stroke-width:1.33333337"
       d="m 845.59325,691.33336 c 0.0272,-2.2 0.326,-2.93859 0.66405,-1.6413 0.33806,1.2973 0.31583,3.0973 -0.0495,4 -0.36524,0.90271 -0.64183,-0.1587 -0.61466,-2.3587 z m -4.15467,-14.77778 c 0.064,-1.55326 0.37992,-1.8692 0.80555,-0.80556 0.38516,0.9625 0.3378,2.11251 -0.1052,2.55556 -0.44305,0.44306 -0.75819,-0.34445 -0.70029,-1.75 z m -4,-13.33333 c 0.064,-1.55327 0.37992,-1.8692 0.80555,-0.80556 0.38516,0.96249 0.3378,2.11251 -0.1052,2.55556 -0.44305,0.44305 -0.75819,-0.34445 -0.70029,-1.75 z m -4,-13.33333 c 0.064,-1.55327 0.37992,-1.8692 0.80555,-0.80556 0.38516,0.96249 0.3378,2.1125 -0.1052,2.55556 -0.44305,0.44305 -0.75819,-0.34446 -0.70029,-1.75 z m -4,-13.33334 c 0.064,-1.55327 0.37992,-1.8692 0.80555,-0.80556 0.38516,0.96249 0.3378,2.11251 -0.1052,2.55556 -0.44305,0.44305 -0.75819,-0.34445 -0.70029,-1.75 z m -3.34336,-10.6508 c -0.49042,-1.95401 -0.63454,-3.80989 -0.32025,-4.12419 0.31428,-0.31428 0.97268,1.02732 1.46311,2.98134 0.49042,1.95401 0.63454,3.80989 0.32025,4.12418 -0.31428,0.31428 -0.97268,-1.02732 -1.46311,-2.98133 z m -4,-13.33333 c -0.49042,-1.95402 -0.63454,-3.8099 -0.32025,-4.12419 0.31428,-0.31428 0.97268,1.02732 1.46311,2.98133 0.49042,1.95402 0.63454,3.8099 0.32025,4.12419 -0.31428,0.31428 -0.97268,-1.02732 -1.46311,-2.98133 z m -4,-13.33334 c -0.49042,-1.95401 -0.63454,-3.80989 -0.32025,-4.12418 0.31428,-0.31428 0.97268,1.02732 1.46311,2.98133 0.49042,1.95401 0.63454,3.80989 0.32025,4.12419 -0.31428,0.31428 -0.97268,-1.02732 -1.46311,-2.98134 z m -4,-13.33333 c -0.49042,-1.95401 -0.63454,-3.80989 -0.32025,-4.12419 0.31428,-0.31428 0.97268,1.02732 1.46311,2.98134 0.49042,1.95401 0.63454,3.80989 0.32025,4.12418 -0.31428,0.31428 -0.97268,-1.02732 -1.46311,-2.98133 z m -4,-13.33333 c -0.49042,-1.95402 -0.63454,-3.8099 -0.32025,-4.12419 0.31428,-0.31428 0.97268,1.02732 1.46311,2.98133 0.49042,1.95402 0.63454,3.8099 0.32025,4.12419 -0.31428,0.31428 -0.97268,-1.02732 -1.46311,-2.98133 z m -4,-13.33334 c -0.49042,-1.95401 -0.63454,-3.80989 -0.32025,-4.12418 0.31428,-0.31428 0.97268,1.02732 1.46311,2.98133 0.49042,1.95401 0.63454,3.80989 0.32025,4.12419 -0.31428,0.31428 -0.97268,-1.02732 -1.46311,-2.98134 z m -4,-13.33333 c -0.49042,-1.95402 -0.63454,-3.8099 -0.32025,-4.12419 0.31428,-0.31428 0.97268,1.02732 1.46311,2.98133 0.49042,1.95402 0.63454,3.8099 0.32025,4.12419 -0.31428,0.31428 -0.97268,-1.02732 -1.46311,-2.98133 z m -4,-13.33334 c -0.49042,-1.95401 -0.63454,-3.80989 -0.32025,-4.12418 0.31428,-0.31428 0.97268,1.02732 1.46311,2.98133 0.49042,1.95401 0.63454,3.80989 0.32025,4.12419 -0.31428,0.31428 -0.97268,-1.02732 -1.46311,-2.98134 z m -4,-13.33333 c -0.49042,-1.95401 -0.63454,-3.80989 -0.32025,-4.12419 0.31428,-0.31428 0.97268,1.02732 1.46311,2.98134 0.49042,1.95401 0.63454,3.80989 0.32025,4.12418 -0.31428,0.31428 -0.97268,-1.02732 -1.46311,-2.98133 z m -4,-13.33333 c -0.49042,-1.95402 -0.63454,-3.8099 -0.32025,-4.12419 0.31428,-0.31428 0.97268,1.02732 1.46311,2.98133 0.49042,1.95402 0.63454,3.8099 0.32025,4.12419 -0.31428,0.31428 -0.97268,-1.02732 -1.46311,-2.98133 z m -4.65664,-16.01587 c 0.064,-1.55327 0.37992,-1.8692 0.80555,-0.80556 0.38516,0.96249 0.3378,2.11251 -0.1052,2.55556 -0.44305,0.44305 -0.75819,-0.34445 -0.70029,-1.75 z m -4,-13.33333 c 0.064,-1.55327 0.37992,-1.8692 0.80555,-0.80556 0.38516,0.96249 0.3378,2.1125 -0.1052,2.55556 -0.44305,0.44305 -0.75819,-0.34446 -0.70029,-1.75 z m -4.67669,-14.6508 c -0.49043,-1.95402 -0.63455,-3.8099 -0.32025,-4.12419 0.31428,-0.31428 0.97268,1.02732 1.4631,2.98133 0.49043,1.95402 0.63455,3.8099 0.32026,4.12419 -0.31428,0.31428 -0.97268,-1.02732 -1.46311,-2.98133 z m -4,-13.33334 c -0.49043,-1.95401 -0.63455,-3.80989 -0.32025,-4.12419 0.31428,-0.31428 0.97268,1.02732 1.4631,2.98134 0.49043,1.95401 0.63455,3.80989 0.32026,4.12419 -0.31428,0.31428 -0.97268,-1.02732 -1.46311,-2.98134 z m -4,-13.33333 c -0.49043,-1.95402 -0.63455,-3.8099 -0.32025,-4.12419 0.31428,-0.31428 0.97268,1.02732 1.4631,2.98133 0.49043,1.95402 0.63455,3.8099 0.32026,4.12419 -0.31428,0.31428 -0.97268,-1.02732 -1.46311,-2.98133 z m -4,-13.33334 c -0.49043,-1.95401 -0.63455,-3.80989 -0.32025,-4.12418 0.31428,-0.31428 0.97268,1.02732 1.4631,2.98133 0.49043,1.95401 0.63455,3.80989 0.32026,4.12419 -0.31428,0.31428 -0.97268,-1.02732 -1.46311,-2.98134 z m -4,-13.33333 c -0.49043,-1.95401 -0.63455,-3.80989 -0.32025,-4.12419 0.31428,-0.31428 0.97268,1.02732 1.4631,2.98134 0.49043,1.95401 0.63455,3.80989 0.32026,4.12418 -0.31428,0.31428 -0.97268,-1.02732 -1.46311,-2.98133 z m -4,-13.33333 c -0.49043,-1.95402 -0.63455,-3.8099 -0.32025,-4.12419 0.31428,-0.31428 0.97268,1.02732 1.4631,2.98133 0.49043,1.95402 0.63455,3.8099 0.32026,4.12419 -0.31428,0.31428 -0.97268,-1.02732 -1.46311,-2.98133 z m -4,-13.33334 c -0.49043,-1.95401 -0.63455,-3.80989 -0.32025,-4.12418 0.31428,-0.31428 0.97268,1.02732 1.4631,2.98133 0.49043,1.95401 0.63455,3.80989 0.32026,4.12419 -0.31428,0.31428 -0.97268,-1.02732 -1.46311,-2.98134 z m -4,-13.33333 c -0.49043,-1.95401 -0.63455,-3.80989 -0.32025,-4.12419 0.31428,-0.31428 0.97268,1.02732 1.4631,2.98134 0.49043,1.95401 0.63455,3.80989 0.32026,4.12418 -0.31428,0.31428 -0.97268,-1.02732 -1.46311,-2.98133 z m -4.65664,-16.01587 c 0.064,-1.55326 0.37992,-1.8692 0.80555,-0.80556 0.38516,0.9625 0.3378,2.11251 -0.1052,2.55556 -0.44306,0.44306 -0.75819,-0.34445 -0.7003,-1.75 z m -4,-13.33333 c 0.064,-1.55327 0.37992,-1.8692 0.80555,-0.80556 0.38516,0.96249 0.3378,2.11249 -0.1052,2.55556 -0.44305,0.44305 -0.75819,-0.34446 -0.70029,-1.75 z m -4.67669,-14.6508 c -0.49043,-1.95402 -0.63455,-3.8099 -0.32025,-4.12419 0.31428,-0.31428 0.97268,1.02732 1.4631,2.98133 0.49043,1.95402 0.63455,3.8099 0.32026,4.12419 -0.31428,0.31428 -0.97268,-1.02732 -1.46311,-2.98133 z m -4,-13.33334 c -0.49043,-1.95401 -0.63455,-3.80989 -0.32025,-4.12418 0.31428,-0.31428 0.97268,1.02732 1.4631,2.98133 0.49043,1.95401 0.63455,3.80989 0.32026,4.12419 -0.31428,0.31428 -0.97268,-1.02732 -1.46311,-2.98134 z m -4,-13.33333 c -0.49043,-1.95401 -0.63455,-3.80989 -0.32025,-4.12419 0.31428,-0.31428 0.97268,1.02732 1.4631,2.98134 0.49043,1.95401 0.63455,3.80989 0.32026,4.12418 -0.31428,0.31428 -0.97268,-1.02732 -1.46311,-2.98133 z m -4,-13.33333 c -0.49043,-1.95402 -0.63455,-3.8099 -0.32025,-4.12419 0.31428,-0.31428 0.97268,1.02732 1.4631,2.98133 0.49043,1.95402 0.63455,3.8099 0.32026,4.12419 -0.31428,0.31428 -0.97268,-1.02732 -1.46311,-2.98133 z m -4,-13.33334 c -0.49043,-1.95401 -0.63455,-3.80989 -0.32025,-4.12418 0.31428,-0.31428 0.97268,1.02732 1.4631,2.98133 0.49043,1.95401 0.63455,3.80989 0.32026,4.12419 -0.31428,0.31428 -0.97268,-1.02732 -1.46311,-2.98134 z m -4.65664,-16.01586 c 0.064,-1.55327 0.37992,-1.8692 0.80555,-0.80556 0.38516,0.96249 0.3378,2.11249 -0.1052,2.55556 -0.44306,0.44305 -0.75819,-0.34446 -0.7003,-1.75 z m -4,-13.33334 c 0.064,-1.55327 0.37992,-1.8692 0.80555,-0.80556 0.38516,0.96249 0.3378,2.11249 -0.1052,2.55556 -0.44306,0.44305 -0.75819,-0.34445 -0.7003,-1.75 z m -4.67669,-14.6508 c -0.49043,-1.95401 -0.63455,-3.80989 -0.32026,-4.12419 0.31428,-0.31428 0.97268,1.02732 1.46311,2.98134 0.49043,1.95401 0.63455,3.80989 0.32025,4.12418 -0.31428,0.31428 -0.97268,-1.02732 -1.4631,-2.98133 z m -4,-13.33333 c -0.49043,-1.95402 -0.63455,-3.8099 -0.32026,-4.12419 0.31428,-0.31428 0.97268,1.02732 1.46311,2.98133 0.49043,1.95402 0.63455,3.8099 0.32025,4.12419 -0.31428,0.31428 -0.97268,-1.02732 -1.4631,-2.98133 z m -4,-13.33334 c -0.49043,-1.95401 -0.63455,-3.80989 -0.32026,-4.12418 0.31428,-0.31428 0.97268,1.02732 1.46311,2.98133 0.49043,1.95401 0.63455,3.80989 0.32025,4.12419 -0.31428,0.31428 -0.97268,-1.02732 -1.4631,-2.98134 z m -4,-13.33333 c -0.49043,-1.95401 -0.63455,-3.80989 -0.32026,-4.12419 0.31428,-0.31428 0.97268,1.02732 1.46311,2.98134 0.49043,1.95401 0.63455,3.80989 0.32025,4.12418 -0.31428,0.31428 -0.97268,-1.02732 -1.4631,-2.98133 z m -4.65664,-16.01587 c 0.064,-1.55326 0.37992,-1.8692 0.80554,-0.80556 0.38516,0.9625 0.3378,2.1125 -0.1052,2.55556 -0.44305,0.44306 -0.75818,-0.34445 -0.70029,-1.75 z m -4,-13.33333 c 0.064,-1.55327 0.37992,-1.8692 0.80554,-0.80556 0.38516,0.96249 0.3378,2.11249 -0.1052,2.55556 -0.44305,0.44305 -0.75818,-0.34445 -0.70029,-1.75 z m -4.6767,-14.6508 c -0.49042,-1.95402 -0.63454,-3.8099 -0.32025,-4.12419 0.31428,-0.31428 0.97268,1.02732 1.46311,2.98133 0.49042,1.95402 0.63454,3.8099 0.32025,4.12419 -0.31428,0.31428 -0.97268,-1.02732 -1.46311,-2.98133 z m -4,-13.33333 c -0.49042,-1.95402 -0.63454,-3.80991 -0.32025,-4.12419 0.31428,-0.31429 0.97268,1.02731 1.46311,2.98133 0.49042,1.95402 0.63454,3.8099 0.32025,4.12419 -0.31428,0.31428 -0.97268,-1.02732 -1.46311,-2.98133 z m -4,-13.33334 c -0.49042,-1.95402 -0.63454,-3.8099 -0.32025,-4.12418 0.31428,-0.31429 0.97268,1.02731 1.46311,2.98133 0.49042,1.95401 0.63454,3.8099 0.32025,4.12418 -0.31428,0.31429 -0.97268,-1.02731 -1.46311,-2.98133 z m -4.65664,-16.01587 c 0.064,-1.553258 0.37992,-1.869201 0.80555,-0.805557 0.38516,0.962497 0.3378,2.112497 -0.1052,2.555557 -0.44305,0.44305 -0.75819,-0.34445 -0.70029,-1.75 z m -4,-13.333334 c 0.064,-1.553258 0.37992,-1.8692 0.80555,-0.805556 0.38516,0.9625 0.3378,2.1125 -0.1052,2.555556 -0.44305,0.443054 -0.75819,-0.344446 -0.70029,-1.75 z M 659.42856,72.57143 c -0.49043,-1.954017 -0.63455,-3.809901 -0.32025,-4.124186 0.31428,-0.314286 0.97268,1.027313 1.4631,2.98133 0.49043,1.954018 0.63455,3.809902 0.32026,4.124187 -0.31428,0.314286 -0.97268,-1.027313 -1.46311,-2.981331 z m -4.65664,-16.015872 c 0.064,-1.553257 0.37992,-1.8692 0.80555,-0.805556 0.38516,0.9625 0.3378,2.1125 -0.1052,2.555556 -0.44306,0.443055 -0.75819,-0.344445 -0.7003,-1.75 z m -4,-13.333334 c 0.064,-1.553257 0.37992,-1.8692 0.80555,-0.805556 0.38516,0.9625 0.3378,2.1125 -0.1052,2.555556 -0.44306,0.443055 -0.75819,-0.344445 -0.7003,-1.75 z m -4,-13.333334 c 0.064,-1.553257 0.37992,-1.8692 0.80555,-0.805556 0.38516,0.9625 0.3378,2.1125 -0.1052,2.555556 -0.44306,0.443055 -0.75819,-0.344445 -0.7003,-1.75 z m -5.33333,-17.333334 c 0.064,-1.553257 0.37992,-1.869199 0.80554,-0.805556 0.38516,0.9625 0.3378,2.1125 -0.1052,2.555556 -0.44305,0.443055 -0.75818,-0.344445 -0.70029,-1.75 z m -3.35288,-9.4980518 c -0.72358,-1.9002647 -0.57043,-2.0534161 0.7464,-0.7463931 0.91122,0.9044446 1.32089,1.9803214 0.91037,2.3908376 -0.41052,0.4105161 -1.15607,-0.3294839 -1.65677,-1.6444445 z"
       id="path4789"
       inkscape:connector-curvature="0" />
    <path
       style="fill:#433b3a;stroke-width:1.33333337"
       d="M 815.61672,586.95858 C 781.38881,472.7009 727.14705,292.5682 679.8742,136.16816 662.28063,77.960648 648.10933,30.112881 648.38241,29.83979 c 0.56996,-0.56996 5.3494,15.079292 70.29324,230.16022 73.25736,242.61367 128.29757,426.80456 127.71308,427.38905 -0.29045,0.29044 -14.13785,-44.90327 -30.77201,-100.43048 z M 644.79999,20.533334 c -1.28891,-4.088873 -2.10347,-7.674316 -1.81014,-7.96765 0.29334,-0.293333 1.5879,2.81211 2.8768,6.900983 1.28891,4.088874 2.10347,7.674317 1.81014,7.96765 -0.29334,0.293333 -1.5879,-2.81211 -2.8768,-6.900983 z m -4.0381,-13.2952386 c -0.49042,-1.9540174 -0.63454,-3.8099017 -0.32025,-4.1241874 0.31428,-0.3142858 0.97268,1.0273129 1.46311,2.9813303 0.49042,1.9540174 0.63454,3.8099018 0.32025,4.1241877 -0.31428,0.314286 -0.97268,-1.0273132 -1.46311,-2.9813306 z"
       id="path4787"
       inkscape:connector-curvature="0" />
    <path
       style="fill:#292827;stroke-width:1.51983476"
       d="m 811.56171,749.19709 c -0.0567,-0.21232 -0.34873,-2.31047 -0.64901,-4.66256 C 810.3196,739.88873 748.54615,526.4942 671.56942,263.17744 596.20973,5.39212 579.45522,-51.015633 578.08126,-51.570788 c -0.70063,-0.283094 -1.27388,-1.151675 -1.27388,-1.930182 0,-0.855378 225.22468,-1.415466 569.19262,-1.415466 h 569.1925 V 347.33334 749.58313 h -451.7639 c -248.4701,0 -451.8102,-0.17371 -451.86689,-0.38604 z"
       id="path4785"
       inkscape:connector-curvature="0" />
  </g>
</svg>
