<?xml version="1.0" encoding="UTF-8" standalone="no"?>
<!-- Created with Inkscape (http://www.inkscape.org/) -->

<svg
   xmlns:dc="http://purl.org/dc/elements/1.1/"
   xmlns:cc="http://creativecommons.org/ns#"
   xmlns:rdf="http://www.w3.org/1999/02/22-rdf-syntax-ns#"
   xmlns:svg="http://www.w3.org/2000/svg"
   xmlns="http://www.w3.org/2000/svg"
   xmlns:sodipodi="http://sodipodi.sourceforge.net/DTD/sodipodi-0.dtd"
   xmlns:inkscape="http://www.inkscape.org/namespaces/inkscape"
   version="1.1"
   id="svg4799"
   width="396.79999"
   height="166.72"
   viewBox="0 0 396.79999 166.72"
   sodipodi:docname="bag.svg"
   inkscape:version="0.92.1 r15371">
  <metadata
     id="metadata4805">
    <rdf:RDF>
      <cc:Work
         rdf:about="">
        <dc:format>image/svg+xml</dc:format>
        <dc:type
           rdf:resource="http://purl.org/dc/dcmitype/StillImage" />
        <dc:title></dc:title>
      </cc:Work>
    </rdf:RDF>
  </metadata>
  <defs
     id="defs4803" />
  <sodipodi:namedview
     pagecolor="#ffffff"
     bordercolor="#666666"
     borderopacity="1"
     objecttolerance="10"
     gridtolerance="10"
     guidetolerance="10"
     inkscape:pageopacity="0"
     inkscape:pageshadow="2"
     inkscape:window-width="1440"
     inkscape:window-height="838"
     id="namedview4801"
     showgrid="false"
     inkscape:zoom="0.79133067"
     inkscape:cx="71.398724"
     inkscape:cy="83.360001"
     inkscape:window-x="-8"
     inkscape:window-y="-8"
     inkscape:window-maximized="1"
     inkscape:current-layer="g4809" />
  <g
     id="g4809"
     transform="translate(-256.52993,214.82801)">
    <path
       style="fill:#e6d0cf;stroke-width:0.31999999"
       d="M 191.70526,165.83655 C 191.67512,165.35527 241.15145,2.0456135 241.60782,1.12 l 0.31555,-0.64 -0.14786,0.64 c -0.14927,0.6460859 -49.69666,164.20614 -49.92302,164.8 -0.0671,0.176 -0.13334,0.13845 -0.14723,-0.0834 z"
       id="path4817"
       inkscape:connector-curvature="0" />
    <path
       style="fill:#b5716d;stroke-width:0.31999999"
       d="m 193.30526,158.21333 c 0.0154,-0.37278 0.0912,-0.4486 0.19333,-0.19333 0.0924,0.231 0.0811,0.507 -0.0252,0.61333 -0.10633,0.10634 -0.18196,-0.0827 -0.16807,-0.42 z m 3.2,-10.56 c 0.0154,-0.37278 0.0912,-0.4486 0.19333,-0.19333 0.0924,0.231 0.0811,0.507 -0.0252,0.61333 -0.10633,0.10634 -0.18196,-0.0827 -0.16807,-0.42 z m 2.24,-7.36 c 0.0154,-0.37278 0.0912,-0.4486 0.19333,-0.19333 0.0924,0.231 0.0811,0.507 -0.0252,0.61333 -0.10633,0.10634 -0.18196,-0.0827 -0.16807,-0.42 z m 3.2,-10.56 c 0.0154,-0.37278 0.0912,-0.4486 0.19333,-0.19333 0.0924,0.231 0.0811,0.507 -0.0252,0.61333 -0.10633,0.10634 -0.18196,-0.0827 -0.16807,-0.42 z m 3.2,-10.56 c 0.0154,-0.37278 0.0912,-0.4486 0.19333,-0.19333 0.0924,0.231 0.0811,0.507 -0.0252,0.61333 -0.10633,0.10634 -0.18196,-0.0827 -0.16807,-0.42 z m 2.24,-7.36 c 0.0154,-0.37278 0.0912,-0.4486 0.19333,-0.19333 0.0924,0.231 0.0811,0.507 -0.0252,0.61333 -0.10633,0.10634 -0.18196,-0.0827 -0.16807,-0.42 z m 0.96,-3.2 c 0.0154,-0.37278 0.0912,-0.4486 0.19333,-0.19333 0.0924,0.231 0.0811,0.507 -0.0252,0.61333 -0.10633,0.10634 -0.18196,-0.0827 -0.16807,-0.42 z m 2.24,-7.36 c 0.0154,-0.37278 0.0912,-0.4486 0.19333,-0.19333 0.0924,0.231 0.0811,0.507 -0.0252,0.61333 -0.10633,0.10634 -0.18196,-0.0827 -0.16807,-0.42 z m 3.2,-10.559996 c 0.0154,-0.372784 0.0912,-0.448608 0.19333,-0.193334 0.0924,0.230998 0.0811,0.507002 -0.0252,0.613334 -0.10633,0.106333 -0.18196,-0.08267 -0.16807,-0.42 z m 3.2,-10.56 c 0.0154,-0.372784 0.0912,-0.448608 0.19333,-0.193334 0.0924,0.230998 0.0811,0.506998 -0.0253,0.613334 -0.10633,0.106333 -0.18196,-0.08267 -0.16807,-0.42 z m 2.24,-7.36 c 0.0154,-0.372784 0.0912,-0.448608 0.19333,-0.193334 0.0924,0.230998 0.0811,0.506998 -0.0252,0.613334 -0.10633,0.106333 -0.18196,-0.08267 -0.16807,-0.42 z m 0.96,-3.2 c 0.0154,-0.372784 0.0912,-0.448608 0.19333,-0.193334 0.0924,0.230998 0.0811,0.506998 -0.0252,0.613334 -0.10633,0.106333 -0.18196,-0.08267 -0.16807,-0.42 z m 2.24,-7.36 c 0.0154,-0.372784 0.0912,-0.448608 0.19333,-0.193334 0.0924,0.230998 0.0811,0.506998 -0.0252,0.613334 -0.10633,0.106333 -0.18196,-0.08267 -0.16807,-0.42 z m 3.2,-10.56 c 0.0154,-0.372784 0.0912,-0.448608 0.19333,-0.193334 0.0924,0.230998 0.0811,0.506998 -0.0252,0.613334 -0.10633,0.106333 -0.18196,-0.08267 -0.16807,-0.42 z m 3.2,-10.56 c 0.0154,-0.372784 0.0912,-0.448608 0.19333,-0.193334 0.0924,0.230998 0.0811,0.506998 -0.0252,0.613334 -0.10633,0.106333 -0.18196,-0.08267 -0.16807,-0.42 z m 2.24,-7.36 c 0.0154,-0.372784 0.0912,-0.448608 0.19333,-0.193334 0.0924,0.230998 0.0811,0.506998 -0.0252,0.613334 -0.10633,0.106333 -0.18196,-0.08267 -0.16807,-0.42 z m 3.2,-10.560001 c 0.0154,-0.372781 0.0912,-0.448608 0.19333,-0.193333 0.0924,0.231 0.0811,0.507 -0.0252,0.613333 -0.10633,0.106334 -0.18196,-0.08267 -0.16807,-0.42 z m 3.2,-10.56 c 0.0154,-0.372781 0.0912,-0.448608 0.19333,-0.193333 0.0924,0.231 0.0811,0.507 -0.0252,0.613333 -0.10633,0.106334 -0.18196,-0.08267 -0.16807,-0.42 z m 2.24,-7.3599996 c 0.0154,-0.3727817 0.0912,-0.448608 0.19333,-0.1933334 0.0924,0.231 0.0811,0.507 -0.0252,0.6133334 -0.10633,0.1063332 -0.18196,-0.082667 -0.16807,-0.42 z m 0.96,-3.2000001 c 0.0154,-0.3727817 0.0912,-0.4486078 0.19333,-0.1933333 0.0924,0.231 0.0811,0.507 -0.0252,0.6133333 -0.10633,0.1063334 -0.18196,-0.082667 -0.16807,-0.42 z"
       id="path4815"
       inkscape:connector-curvature="0" />
    <path
       style="fill:#a4514c;stroke-width:0.31999999"
       d="m 191.06526,164.93333 c 0.0154,-0.37278 0.0912,-0.4486 0.19333,-0.19333 0.0924,0.231 0.0811,0.507 -0.0252,0.61333 -0.10633,0.10634 -0.18196,-0.0827 -0.16807,-0.42 z m 0.96,-3.2 c 0.0154,-0.37278 0.0912,-0.4486 0.19333,-0.19333 0.0924,0.231 0.0811,0.507 -0.0252,0.61333 -0.10633,0.10634 -0.18196,-0.0827 -0.16807,-0.42 z m 2.24,-7.36 c 0.0154,-0.37278 0.0912,-0.4486 0.19333,-0.19333 0.0924,0.231 0.0811,0.507 -0.0252,0.61333 -0.10633,0.10634 -0.18196,-0.0827 -0.16807,-0.42 z m 0.96,-3.2 c 0.0154,-0.37278 0.0912,-0.4486 0.19333,-0.19333 0.0924,0.231 0.0811,0.507 -0.0252,0.61333 -0.10633,0.10634 -0.18196,-0.0827 -0.16807,-0.42 z m 2.24,-7.36 c 0.0154,-0.37278 0.0912,-0.4486 0.19333,-0.19333 0.0924,0.231 0.0811,0.507 -0.0252,0.61333 -0.10633,0.10634 -0.18196,-0.0827 -0.16807,-0.42 z m 2.24,-7.36 c 0.0154,-0.37278 0.0912,-0.4486 0.19333,-0.19333 0.0924,0.231 0.0811,0.507 -0.0252,0.61333 -0.10633,0.10634 -0.18196,-0.0827 -0.16807,-0.42 z m 0.96,-3.2 c 0.0154,-0.37278 0.0912,-0.4486 0.19333,-0.19333 0.0924,0.231 0.0811,0.507 -0.0252,0.61333 -0.10633,0.10634 -0.18196,-0.0827 -0.16807,-0.42 z m 2.24,-7.36 c 0.0154,-0.37278 0.0912,-0.4486 0.19333,-0.19333 0.0924,0.231 0.0811,0.507 -0.0252,0.61333 -0.10633,0.10634 -0.18196,-0.0827 -0.16807,-0.42 z m 0.96,-3.2 c 0.0154,-0.37278 0.0912,-0.4486 0.19333,-0.19333 0.0924,0.231 0.0811,0.507 -0.0252,0.61333 -0.10633,0.10634 -0.18196,-0.0827 -0.16807,-0.42 z m 2.24,-7.36 c 0.0154,-0.37278 0.0912,-0.4486 0.19333,-0.19333 0.0924,0.231 0.0811,0.507 -0.0252,0.61333 -0.10633,0.10634 -0.18196,-0.0827 -0.16807,-0.42 z m 3.2,-10.56 c 0.0154,-0.37278 0.0912,-0.4486 0.19333,-0.19333 0.0924,0.231 0.0811,0.507 -0.0252,0.61333 -0.10633,0.10634 -0.18196,-0.0827 -0.16807,-0.42 z m 2.24,-7.359996 c 0.0154,-0.372784 0.0912,-0.448608 0.19333,-0.193334 0.0924,0.230998 0.0811,0.507002 -0.0252,0.613334 -0.10633,0.106333 -0.18196,-0.08267 -0.16807,-0.42 z m 0.96,-3.2 c 0.0154,-0.372784 0.0912,-0.448608 0.19333,-0.193334 0.0924,0.230998 0.0811,0.507002 -0.0252,0.613334 -0.10633,0.106333 -0.18196,-0.08267 -0.16807,-0.42 z m 2.24,-7.36 c 0.0154,-0.372784 0.0912,-0.448608 0.19333,-0.193334 0.0924,0.230998 0.0811,0.507002 -0.0252,0.613334 -0.10633,0.106333 -0.18196,-0.08267 -0.16807,-0.42 z m 0.96,-3.2 c 0.0154,-0.372784 0.0912,-0.448608 0.19333,-0.193334 0.0924,0.230998 0.0811,0.507002 -0.0252,0.613334 -0.10633,0.106333 -0.18196,-0.08267 -0.16807,-0.42 z m 2.24,-7.36 c 0.0154,-0.372784 0.0912,-0.448608 0.19333,-0.193334 0.0924,0.230998 0.0811,0.506998 -0.0252,0.613334 -0.10633,0.106333 -0.18196,-0.08267 -0.16807,-0.42 z m 3.2,-10.56 c 0.0154,-0.372784 0.0912,-0.448608 0.19333,-0.193334 0.0924,0.230998 0.0811,0.506998 -0.0252,0.613334 -0.10633,0.106333 -0.18196,-0.08267 -0.16807,-0.42 z m 2.24,-7.36 c 0.0154,-0.372784 0.0912,-0.448608 0.19333,-0.193334 0.0924,0.230998 0.0811,0.506998 -0.0252,0.613334 -0.10633,0.106333 -0.18196,-0.08267 -0.16807,-0.42 z m 0.96,-3.2 c 0.0154,-0.372784 0.0912,-0.448608 0.19333,-0.193334 0.0924,0.230998 0.0811,0.506998 -0.0252,0.613334 -0.10633,0.106333 -0.18196,-0.08267 -0.16807,-0.42 z m 2.24,-7.36 c 0.0154,-0.372784 0.0912,-0.448608 0.19333,-0.193334 0.0924,0.230998 0.0811,0.506998 -0.0252,0.613334 -0.10633,0.106333 -0.18196,-0.08267 -0.16807,-0.42 z m 0.96,-3.2 c 0.0154,-0.372784 0.0912,-0.448608 0.19333,-0.193334 0.0924,0.230998 0.0811,0.506998 -0.0252,0.613334 -0.10633,0.106333 -0.18196,-0.08267 -0.16807,-0.42 z m 2.24,-7.36 c 0.0154,-0.372784 0.0912,-0.448608 0.19333,-0.193334 0.0924,0.230998 0.0811,0.506998 -0.0252,0.613334 -0.10633,0.106333 -0.18196,-0.08267 -0.16807,-0.42 z m 2.24,-7.360001 c 0.0154,-0.372781 0.0912,-0.448608 0.19333,-0.193333 0.0924,0.231 0.0811,0.507 -0.0252,0.613333 -0.10633,0.106334 -0.18196,-0.08267 -0.16807,-0.42 z m 0.96,-3.2 c 0.0154,-0.372781 0.0912,-0.448608 0.19333,-0.193333 0.0924,0.231 0.0811,0.507 -0.0253,0.613333 -0.10633,0.106334 -0.18196,-0.08267 -0.16807,-0.42 z m 2.24,-7.36 c 0.0154,-0.372781 0.0912,-0.448608 0.19333,-0.193333 0.0924,0.231 0.0811,0.507 -0.0252,0.613333 -0.10633,0.106334 -0.18196,-0.08267 -0.16807,-0.42 z m 0.96,-3.2 c 0.0154,-0.372781 0.0912,-0.448608 0.19333,-0.193333 0.0924,0.231 0.0811,0.507 -0.0252,0.613333 -0.10633,0.106334 -0.18196,-0.08267 -0.16807,-0.42 z m 2.24,-7.3599996 c 0.0154,-0.3727817 0.0912,-0.448608 0.19333,-0.1933334 0.0924,0.231 0.0811,0.507 -0.0252,0.6133334 -0.10633,0.1063332 -0.18196,-0.082667 -0.16807,-0.42 z"
       id="path4813"
       inkscape:connector-curvature="0" />
    <path
       style="fill:#95322d;stroke-width:0.33708173"
       d="m 254.00254,-132.73171 v -89.67847 l 124.67933,0.011 c 100.44403,0.009 124.5729,0.0954 124.13174,0.44538 -0.69616,0.55232 -52.20338,177.52136 -51.90445,178.333877 0.19329,0.525366 -6.98605,0.566741 -98.34905,0.566741 h -98.55757 z"
       id="path4811"
       inkscape:connector-curvature="0" />
  </g>
</svg>
