<?xml version="1.0" standalone="no"?>
<!DOCTYPE svg PUBLIC "-//W3C//DTD SVG 20010904//EN"
 "http://www.w3.org/TR/2001/REC-SVG-20010904/DTD/svg10.dtd">
<svg version="1.0" xmlns="http://www.w3.org/2000/svg"
 width="900.000000pt" height="900.000000pt" viewBox="0 0 900.000000 900.000000"
 preserveAspectRatio="xMidYMid meet">
<metadata>
Created by potrace 1.10, written by Peter Selinger 2001-2011
</metadata>
<g transform="translate(0.000000,900.000000) scale(0.100000,-0.100000)"
fill="#000000" stroke="none">
<path d="M4215 6543 c-68 -16 -193 -53 -215 -63 -182 -84 -290 -149 -395 -238
-194 -165 -351 -410 -418 -652 -43 -156 -47 -186 -47 -396 0 -214 1 -221 51
-374 28 -86 71 -182 155 -345 167 -324 304 -601 304 -613 0 -8 6 -26 14 -40
13 -25 26 -58 56 -142 6 -19 15 -51 19 -70 4 -19 13 -51 19 -70 22 -70 34
-149 51 -323 10 -103 23 -183 30 -190 9 -9 166 -13 646 -15 l633 -2 26 22 c24
22 26 30 31 138 11 232 65 454 170 705 7 17 63 131 125 255 62 124 150 299
196 390 96 191 114 232 114 253 0 9 4 18 9 22 5 3 12 20 16 38 4 17 12 50 20
72 60 183 39 532 -46 755 -11 30 -24 66 -29 80 -10 33 -56 123 -94 185 -131
217 -327 393 -570 511 -82 40 -191 77 -318 108 -89 22 -464 21 -553 -1z m480
-149 c265 -52 471 -160 649 -338 214 -214 334 -488 351 -801 10 -175 -13 -309
-81 -470 -20 -48 -171 -352 -224 -450 -73 -135 -112 -215 -190 -390 -18 -41
-43 -104 -65 -165 -41 -117 -36 -97 -75 -260 -11 -47 -24 -125 -30 -175 -5
-49 -13 -109 -16 -133 l-6 -43 -92 3 -91 3 -3 667 -2 667 -26 20 c-36 28 -75
27 -104 -4 -19 -20 -22 -34 -21 -84 2 -89 -2 -91 -173 -91 -97 0 -146 4 -154
12 -7 7 -12 38 -12 69 0 47 -5 63 -26 88 -32 38 -72 41 -111 7 l-28 -24 -2
-663 c-2 -378 -7 -665 -12 -668 -5 -3 -45 -5 -89 -3 l-79 3 -7 57 c-21 192
-66 406 -102 490 -8 18 -14 39 -14 47 0 8 -7 31 -16 52 -9 21 -22 53 -30 71
-7 18 -20 47 -27 65 -18 41 -185 375 -309 617 -52 102 -97 195 -101 205 -3 11
-15 45 -26 75 -62 167 -79 359 -45 540 31 172 97 347 169 454 14 20 25 39 25
42 0 7 8 17 93 114 143 165 360 302 577 364 169 48 375 60 525 30z m-35 -2224
c7 -13 9 -182 8 -507 l-3 -488 -165 0 -165 0 -3 495 c-1 272 0 501 3 508 3 9
45 12 159 12 144 0 156 -1 166 -20z"/>
<path d="M3914 2862 c-20 -14 -44 -56 -44 -78 0 -11 11 -33 25 -48 l24 -26
574 0 c566 0 575 0 601 21 35 28 35 73 -1 111 l-27 28 -570 0 c-314 0 -576 -4
-582 -8z"/>
<path d="M4002 2554 c-17 -12 -22 -25 -22 -63 0 -26 5 -52 12 -59 9 -9 134
-12 499 -12 545 0 514 -4 514 72 0 30 -6 45 -24 59 -22 18 -47 19 -490 19
-406 0 -469 -2 -489 -16z"/>
</g>
</svg>
