<?xml version="1.0" standalone="no"?>
<!DOCTYPE svg PUBLIC "-//W3C//DTD SVG 20010904//EN"
 "http://www.w3.org/TR/2001/REC-SVG-20010904/DTD/svg10.dtd">
<svg version="1.0" xmlns="http://www.w3.org/2000/svg"
 width="1920.000000pt" height="1920.000000pt" viewBox="0 0 1920.000000 1920.000000"
 preserveAspectRatio="xMidYMid meet">
<metadata>
Created by potrace 1.14, written by Peter Selinger 2001-2017
</metadata>
<g transform="translate(0.000000,1920.000000) scale(0.100000,-0.100000)"
fill="#000000" stroke="none">
<path d="M9430 14044 c-632 -56 -1151 -255 -1630 -624 -115 -89 -381 -353
-474 -470 -252 -318 -443 -708 -540 -1100 -77 -309 -101 -529 -93 -852 4 -199
8 -239 36 -369 78 -370 192 -636 629 -1464 319 -604 454 -900 574 -1255 134
-398 197 -725 218 -1130 6 -107 13 -210 16 -228 6 -40 58 -100 101 -118 48
-21 2638 -21 2686 0 43 18 95 78 101 118 3 18 10 121 16 228 20 382 77 692
195 1059 121 375 287 739 628 1381 382 719 523 1051 598 1409 28 132 32 168
36 376 7 347 -30 637 -122 953 -324 1115 -1272 1918 -2440 2067 -118 15 -446
27 -535 19z m520 -378 c918 -126 1693 -727 2029 -1573 113 -286 169 -547 191
-895 18 -278 -10 -476 -105 -763 -89 -267 -187 -477 -504 -1074 -93 -174 -199
-377 -236 -451 -294 -586 -476 -1104 -560 -1590 -26 -156 -55 -408 -55 -490
l0 -50 -195 0 -195 0 0 1393 c0 927 -4 1404 -10 1429 -32 113 -163 163 -266
103 -70 -41 -84 -83 -84 -253 l0 -142 -350 0 -350 0 0 142 c0 170 -14 212 -84
253 -103 60 -234 10 -266 -103 -6 -25 -10 -502 -10 -1429 l0 -1393 -195 0
-195 0 0 50 c0 28 -7 116 -15 196 -54 515 -195 1007 -451 1570 -98 217 -181
383 -385 765 -317 597 -415 807 -504 1074 -96 287 -122 482 -105 766 17 287
57 502 141 754 318 955 1178 1628 2204 1724 129 12 420 5 555 -13z m10 -5801
l0 -1085 -350 0 -350 0 0 1085 0 1085 350 0 350 0 0 -1085z"/>
<path d="M8362 6129 c-118 -59 -126 -243 -15 -319 l37 -25 1226 0 1226 0 37
25 c112 77 103 262 -16 319 -43 21 -45 21 -1248 21 l-1204 0 -43 -21z"/>
<path d="M8594 5499 c-37 -10 -101 -77 -110 -114 -12 -49 2 -122 30 -160 58
-75 -22 -70 1064 -73 654 -2 986 1 1012 8 46 12 95 51 115 91 19 36 19 122 1
157 -19 36 -65 78 -99 91 -36 14 -1967 14 -2013 0z"/>
</g>
</svg>
