<?xml version="1.0" encoding="UTF-8" standalone="no"?>
<!-- Created with Inkscape (http://www.inkscape.org/) -->

<svg
   xmlns:dc="http://purl.org/dc/elements/1.1/"
   xmlns:cc="http://creativecommons.org/ns#"
   xmlns:rdf="http://www.w3.org/1999/02/22-rdf-syntax-ns#"
   xmlns:svg="http://www.w3.org/2000/svg"
   xmlns="http://www.w3.org/2000/svg"
   xmlns:sodipodi="http://sodipodi.sourceforge.net/DTD/sodipodi-0.dtd"
   xmlns:inkscape="http://www.inkscape.org/namespaces/inkscape"
   version="1.1"
   id="svg4821"
   width="1240"
   height="521"
   viewBox="0 0 1240 521"
   sodipodi:docname="para1.svg"
   inkscape:version="0.92.1 r15371">
  <metadata
     id="metadata4827">
    <rdf:RDF>
      <cc:Work
         rdf:about="">
        <dc:format>image/svg+xml</dc:format>
        <dc:type
           rdf:resource="http://purl.org/dc/dcmitype/StillImage" />
        <dc:title></dc:title>
      </cc:Work>
    </rdf:RDF>
  </metadata>
  <defs
     id="defs4825" />
  <sodipodi:namedview
     pagecolor="#ffffff"
     bordercolor="#666666"
     borderopacity="1"
     objecttolerance="10"
     gridtolerance="10"
     guidetolerance="10"
     inkscape:pageopacity="0"
     inkscape:pageshadow="2"
     inkscape:window-width="1440"
     inkscape:window-height="838"
     id="namedview4823"
     showgrid="false"
     inkscape:zoom="0.25322581"
     inkscape:cx="223.12102"
     inkscape:cy="260.5"
     inkscape:window-x="-8"
     inkscape:window-y="-8"
     inkscape:window-maximized="1"
     inkscape:current-layer="g4831" />
  <g
     id="g4831"
     transform="translate(-683.18471,517.32484)">
    <path
       style="fill:#d0d0d0"
       d="m 346.15216,517 c 0,-0.825 0.60653,-3.075 1.34784,-5 0.74131,-1.925 1.34784,-2.825 1.34784,-2 0,0.825 -0.60653,3.075 -1.34784,5 -0.74131,1.925 -1.34784,2.825 -1.34784,2 z m 3,-10 c 0,-0.825 0.60653,-3.075 1.34784,-5 0.74131,-1.925 1.34784,-2.825 1.34784,-2 0,0.825 -0.60653,3.075 -1.34784,5 -0.74131,1.925 -1.34784,2.825 -1.34784,2 z m 3,-10 c 0,-0.825 0.60653,-3.075 1.34784,-5 0.74131,-1.925 1.34784,-2.825 1.34784,-2 0,0.825 -0.60653,3.075 -1.34784,5 -0.74131,1.925 -1.34784,2.825 -1.34784,2 z m 3.98841,-13 c 0,-0.825 0.38674,-2.4 0.85943,-3.5 0.54172,-1.26064 0.85943,-1.44548 0.85943,-0.5 0,0.825 -0.38674,2.4 -0.85943,3.5 -0.54172,1.26064 -0.85943,1.44548 -0.85943,0.5 z m 3.01159,-10 c 0,-0.825 0.60653,-3.075 1.34784,-5 0.74131,-1.925 1.34784,-2.825 1.34784,-2 0,0.825 -0.60653,3.075 -1.34784,5 -0.74131,1.925 -1.34784,2.825 -1.34784,2 z m 3,-10 c 0,-0.825 0.60653,-3.075 1.34784,-5 0.74131,-1.925 1.34784,-2.825 1.34784,-2 0,0.825 -0.60653,3.075 -1.34784,5 -0.74131,1.925 -1.34784,2.825 -1.34784,2 z m 3,-10 c 0,-0.825 0.60653,-3.075 1.34784,-5 0.74131,-1.925 1.34784,-2.825 1.34784,-2 0,0.825 -0.60653,3.075 -1.34784,5 -0.74131,1.925 -1.34784,2.825 -1.34784,2 z m 4,-13 c 0,-0.825 0.60653,-3.075 1.34784,-5 0.74131,-1.925 1.34784,-2.825 1.34784,-2 0,0.825 -0.60653,3.075 -1.34784,5 -0.74131,1.925 -1.34784,2.825 -1.34784,2 z m 3,-10 c 0,-0.825 0.60653,-3.075 1.34784,-5 0.74131,-1.925 1.34784,-2.825 1.34784,-2 0,0.825 -0.60653,3.075 -1.34784,5 -0.74131,1.925 -1.34784,2.825 -1.34784,2 z m 3,-10 c 0,-0.825 0.60653,-3.075 1.34784,-5 0.74131,-1.925 1.34784,-2.825 1.34784,-2 0,0.825 -0.60653,3.075 -1.34784,5 -0.74131,1.925 -1.34784,2.825 -1.34784,2 z m 3.98841,-13 c 0,-0.825 0.38674,-2.4 0.85943,-3.5 0.54172,-1.26064 0.85943,-1.44548 0.85943,-0.5 0,0.825 -0.38674,2.4 -0.85943,3.5 -0.54172,1.26064 -0.85943,1.44548 -0.85943,0.5 z m 3.01159,-10 c 0,-0.825 0.60653,-3.075 1.34784,-5 0.74131,-1.925 1.34784,-2.825 1.34784,-2 0,0.825 -0.60653,3.075 -1.34784,5 -0.74131,1.925 -1.34784,2.825 -1.34784,2 z m 3,-10 c 0,-0.825 0.60653,-3.075 1.34784,-5 0.74131,-1.925 1.34784,-2.825 1.34784,-2 0,0.825 -0.60653,3.075 -1.34784,5 -0.74131,1.925 -1.34784,2.825 -1.34784,2 z m 3,-10 c 0,-0.825 0.60653,-3.075 1.34784,-5 0.74131,-1.925 1.34784,-2.825 1.34784,-2 0,0.825 -0.60653,3.075 -1.34784,5 -0.74131,1.925 -1.34784,2.825 -1.34784,2 z m 4,-13 c 0,-0.825 0.60653,-3.075 1.34784,-5 0.74131,-1.925 1.34784,-2.825 1.34784,-2 0,0.825 -0.60653,3.075 -1.34784,5 -0.74131,1.925 -1.34784,2.825 -1.34784,2 z m 3,-10 c 0,-0.825 0.60653,-3.075 1.34784,-5 0.74131,-1.925 1.34784,-2.825 1.34784,-2 0,0.825 -0.60653,3.075 -1.34784,5 -0.74131,1.925 -1.34784,2.825 -1.34784,2 z m 3,-10 c 0,-0.825 0.60653,-3.075 1.34784,-5 0.74131,-1.925 1.34784,-2.825 1.34784,-2 0,0.825 -0.60653,3.075 -1.34784,5 -0.74131,1.925 -1.34784,2.825 -1.34784,2 z m 3.98841,-13 c 0,-0.825 0.38674,-2.4 0.85943,-3.5 0.54172,-1.26064 0.85943,-1.44548 0.85943,-0.5 0,0.825 -0.38674,2.4 -0.85943,3.5 -0.54172,1.26064 -0.85943,1.44548 -0.85943,0.5 z m 3.01159,-10 c 0,-0.825 0.60653,-3.075 1.34784,-5 0.74131,-1.925 1.34784,-2.825 1.34784,-2 0,0.825 -0.60653,3.075 -1.34784,5 -0.74131,1.925 -1.34784,2.825 -1.34784,2 z m 3,-10 c 0,-0.825 0.60653,-3.075 1.34784,-5 0.74131,-1.925 1.34784,-2.825 1.34784,-2 0,0.825 -0.60653,3.075 -1.34784,5 -0.74131,1.925 -1.34784,2.825 -1.34784,2 z m 3,-10 c 0,-0.825 0.60653,-3.075 1.34784,-5 0.74131,-1.925 1.34784,-2.825 1.34784,-2 0,0.825 -0.60653,3.075 -1.34784,5 -0.74131,1.925 -1.34784,2.825 -1.34784,2 z m 4,-13 c 0,-0.825 0.60653,-3.075 1.34784,-5 0.74131,-1.925 1.34784,-2.825 1.34784,-2 0,0.825 -0.60653,3.075 -1.34784,5 -0.74131,1.925 -1.34784,2.825 -1.34784,2 z m 3,-10 c 0,-0.825 0.60653,-3.075 1.34784,-5 0.74131,-1.925 1.34784,-2.825 1.34784,-2 0,0.825 -0.60653,3.075 -1.34784,5 -0.74131,1.925 -1.34784,2.825 -1.34784,2 z m 3,-10 c 0,-0.825 0.60653,-3.075 1.34784,-5 0.74131,-1.925 1.34784,-2.825 1.34784,-2 0,0.825 -0.60653,3.075 -1.34784,5 -0.74131,1.925 -1.34784,2.825 -1.34784,2 z m 4,-13 c 0,-0.825 0.60653,-3.075 1.34784,-5 0.74131,-1.925 1.34784,-2.825 1.34784,-2 0,0.825 -0.60653,3.075 -1.34784,5 -0.74131,1.925 -1.34784,2.825 -1.34784,2 z m 3,-10 c 0,-0.825 0.60653,-3.075 1.34784,-5 0.74131,-1.925 1.34784,-2.825 1.34784,-2 0,0.825 -0.60653,3.075 -1.34784,5 -0.74131,1.925 -1.34784,2.825 -1.34784,2 z m 3,-10 c 0,-0.825 0.60653,-3.075 1.34784,-5 0.74131,-1.925 1.34784,-2.825 1.34784,-2 0,0.825 -0.60653,3.075 -1.34784,5 -0.74131,1.925 -1.34784,2.825 -1.34784,2 z m 3.98841,-13 c 0,-0.825 0.38674,-2.4 0.85943,-3.5 0.54172,-1.26064 0.85943,-1.44548 0.85943,-0.5 0,0.825 -0.38674,2.4 -0.85943,3.5 -0.54172,1.26064 -0.85943,1.44548 -0.85943,0.5 z m 3.01159,-10 c 0,-0.825 0.60653,-3.075 1.34784,-5 0.74131,-1.925 1.34784,-2.825 1.34784,-2 0,0.825 -0.60653,3.075 -1.34784,5 -0.74131,1.925 -1.34784,2.825 -1.34784,2 z m 3,-10 c 0,-0.825 0.60653,-3.075 1.34784,-5 0.74131,-1.925 1.34784,-2.825 1.34784,-2 0,0.825 -0.60653,3.075 -1.34784,5 -0.74131,1.925 -1.34784,2.825 -1.34784,2 z m 3,-10 c 0,-0.825 0.60653,-3.075 1.34784,-5 0.74131,-1.925 1.34784,-2.825 1.34784,-2 0,0.825 -0.60653,3.075 -1.34784,5 -0.74131,1.925 -1.34784,2.825 -1.34784,2 z m 4,-13 c 0,-0.825 0.60653,-3.075 1.34784,-5 0.74131,-1.925 1.34784,-2.825 1.34784,-2 0,0.825 -0.60653,3.075 -1.34784,5 -0.74131,1.925 -1.34784,2.825 -1.34784,2 z m 3,-10 c 0,-0.825 0.60653,-3.075 1.34784,-5 0.74131,-1.925 1.34784,-2.825 1.34784,-2 0,0.825 -0.60653,3.075 -1.34784,5 -0.74131,1.925 -1.34784,2.825 -1.34784,2 z m 3,-10 c 0,-0.825 0.60653,-3.075 1.34784,-5 0.74131,-1.925 1.34784,-2.825 1.34784,-2 0,0.825 -0.60653,3.075 -1.34784,5 -0.74131,1.925 -1.34784,2.825 -1.34784,2 z m 3.98841,-13 c 0,-0.825 0.38674,-2.4 0.85943,-3.5 0.54172,-1.26064 0.85943,-1.44548 0.85943,-0.5 0,0.825 -0.38674,2.4 -0.85943,3.5 -0.54172,1.26064 -0.85943,1.44548 -0.85943,0.5 z m 3.01159,-10 c 0,-0.825 0.60653,-3.075 1.34784,-5 0.74131,-1.925 1.34784,-2.825 1.34784,-2 0,0.825 -0.60653,3.075 -1.34784,5 -0.74131,1.925 -1.34784,2.825 -1.34784,2 z m 3,-10 c 0,-0.825 0.60653,-3.075 1.34784,-5 0.74131,-1.925 1.34784,-2.825 1.34784,-2 0,0.825 -0.60653,3.075 -1.34784,5 -0.74131,1.925 -1.34784,2.825 -1.34784,2 z m 3,-10 c 0,-0.825 0.60653,-3.075 1.34784,-5 0.74131,-1.925 1.34784,-2.825 1.34784,-2 0,0.825 -0.60653,3.075 -1.34784,5 -0.74131,1.925 -1.34784,2.825 -1.34784,2 z m 4,-13 c 0,-0.825 0.60653,-3.075 1.34784,-5 0.74131,-1.925 1.34784,-2.825 1.34784,-2 0,0.825 -0.60653,3.075 -1.34784,5 -0.74131,1.925 -1.34784,2.825 -1.34784,2 z m 3,-10 c 0,-0.825 0.60653,-3.075 1.34784,-5 0.74131,-1.925 1.34784,-2.825 1.34784,-2 0,0.825 -0.60653,3.075 -1.34784,5 -0.74131,1.925 -1.34784,2.825 -1.34784,2 z m 3,-10 c 0,-0.825 0.60653,-3.075 1.34784,-5 0.74131,-1.925 1.34784,-2.825 1.34784,-2 0,0.825 -0.60653,3.075 -1.34784,5 -0.74131,1.925 -1.34784,2.825 -1.34784,2 z m 3.98841,-13 c 0,-0.825 0.38674,-2.4 0.85943,-3.5 0.54172,-1.260639 0.85943,-1.445479 0.85943,-0.5 0,0.825 -0.38674,2.4 -0.85943,3.5 -0.54172,1.260639 -0.85943,1.445479 -0.85943,0.5 z m 3.01159,-10 c 0,-0.825 0.60653,-3.075 1.34784,-5 0.74131,-1.925 1.34784,-2.825 1.34784,-2 0,0.825 -0.60653,3.075 -1.34784,5 -0.74131,1.925 -1.34784,2.825 -1.34784,2 z m 3,-10 c 0,-0.825 0.60653,-3.075 1.34784,-5 0.74131,-1.925 1.34784,-2.825 1.34784,-2 0,0.825 -0.60653,3.075 -1.34784,5 -0.74131,1.925 -1.34784,2.825 -1.34784,2 z m 3,-10 c 0,-0.825 0.60653,-3.075 1.34784,-5 0.74131,-1.925 1.34784,-2.825 1.34784,-2 0,0.825 -0.60653,3.075 -1.34784,5 -0.74131,1.925 -1.34784,2.825 -1.34784,2 z m 4,-13 c 0,-0.825 0.60653,-3.075 1.34784,-5 0.74131,-1.925 1.34784,-2.825 1.34784,-2 0,0.825 -0.60653,3.075 -1.34784,5 -0.74131,1.925 -1.34784,2.825 -1.34784,2 z m 3,-10 c 0,-0.825 0.60653,-3.075 1.34784,-5 0.74131,-1.925 1.34784,-2.825 1.34784,-2 0,0.825 -0.60653,3.075 -1.34784,5 -0.74131,1.925 -1.34784,2.825 -1.34784,2 z m 3.33269,-11.5 c 0.42141,-1.65 0.78472,-3.5427051 0.80734,-4.2060113 0.0226,-0.6633063 0.38927,-0.9908591 0.81475,-0.7278953 0.42549,0.2629639 0.28368,1.930669 -0.31512,3.7060113 C 500.36081,9.5147881 499.51095,10.313236 500.48485,6.5 Z"
       id="path4837"
       inkscape:connector-curvature="0" />
    <path
       style="fill:#4f4e4d"
       d="m 345.15216,512 c 0,-0.825 0.60653,-3.075 1.34784,-5 0.74131,-1.925 1.34784,-2.825 1.34784,-2 0,0.825 -0.60653,3.075 -1.34784,5 -0.74131,1.925 -1.34784,2.825 -1.34784,2 z m 3,-10 c 0,-0.825 0.60653,-3.075 1.34784,-5 0.74131,-1.925 1.34784,-2.825 1.34784,-2 0,0.825 -0.60653,3.075 -1.34784,5 -0.74131,1.925 -1.34784,2.825 -1.34784,2 z m 3.98841,-13 c 0,-0.825 0.38674,-2.4 0.85943,-3.5 0.54172,-1.26064 0.85943,-1.44548 0.85943,-0.5 0,0.825 -0.38674,2.4 -0.85943,3.5 -0.54172,1.26064 -0.85943,1.44548 -0.85943,0.5 z m 3,-10 c 0,-0.825 0.38674,-2.4 0.85943,-3.5 0.54172,-1.26064 0.85943,-1.44548 0.85943,-0.5 0,0.825 -0.38674,2.4 -0.85943,3.5 -0.54172,1.26064 -0.85943,1.44548 -0.85943,0.5 z m 3.01159,-10 c 0,-0.825 0.60653,-3.075 1.34784,-5 0.74131,-1.925 1.34784,-2.825 1.34784,-2 0,0.825 -0.60653,3.075 -1.34784,5 -0.74131,1.925 -1.34784,2.825 -1.34784,2 z m 3.98841,-13 c 0,-0.825 0.38674,-2.4 0.85943,-3.5 0.54172,-1.26064 0.85943,-1.44548 0.85943,-0.5 0,0.825 -0.38674,2.4 -0.85943,3.5 -0.54172,1.26064 -0.85943,1.44548 -0.85943,0.5 z m 3,-10 c 0,-0.825 0.38674,-2.4 0.85943,-3.5 0.54172,-1.26064 0.85943,-1.44548 0.85943,-0.5 0,0.825 -0.38674,2.4 -0.85943,3.5 -0.54172,1.26064 -0.85943,1.44548 -0.85943,0.5 z m 3.01159,-10 c 0,-0.825 0.60653,-3.075 1.34784,-5 0.74131,-1.925 1.34784,-2.825 1.34784,-2 0,0.825 -0.60653,3.075 -1.34784,5 -0.74131,1.925 -1.34784,2.825 -1.34784,2 z m 3,-10 c 0,-0.825 0.60653,-3.075 1.34784,-5 0.74131,-1.925 1.34784,-2.825 1.34784,-2 0,0.825 -0.60653,3.075 -1.34784,5 -0.74131,1.925 -1.34784,2.825 -1.34784,2 z m 3.98841,-13 c 0,-0.825 0.38674,-2.4 0.85943,-3.5 0.54172,-1.26064 0.85943,-1.44548 0.85943,-0.5 0,0.825 -0.38674,2.4 -0.85943,3.5 -0.54172,1.26064 -0.85943,1.44548 -0.85943,0.5 z m 3.01159,-10 c 0,-0.825 0.60653,-3.075 1.34784,-5 0.74131,-1.925 1.34784,-2.825 1.34784,-2 0,0.825 -0.60653,3.075 -1.34784,5 -0.74131,1.925 -1.34784,2.825 -1.34784,2 z m 3,-10 c 0,-0.825 0.60653,-3.075 1.34784,-5 0.74131,-1.925 1.34784,-2.825 1.34784,-2 0,0.825 -0.60653,3.075 -1.34784,5 -0.74131,1.925 -1.34784,2.825 -1.34784,2 z m 3.98841,-13 c 0,-0.825 0.38674,-2.4 0.85943,-3.5 0.54172,-1.26064 0.85943,-1.44548 0.85943,-0.5 0,0.825 -0.38674,2.4 -0.85943,3.5 -0.54172,1.26064 -0.85943,1.44548 -0.85943,0.5 z m 3,-10 c 0,-0.825 0.38674,-2.4 0.85943,-3.5 0.54172,-1.26064 0.85943,-1.44548 0.85943,-0.5 0,0.825 -0.38674,2.4 -0.85943,3.5 -0.54172,1.26064 -0.85943,1.44548 -0.85943,0.5 z m 3.01159,-10 c 0,-0.825 0.60653,-3.075 1.34784,-5 0.74131,-1.925 1.34784,-2.825 1.34784,-2 0,0.825 -0.60653,3.075 -1.34784,5 -0.74131,1.925 -1.34784,2.825 -1.34784,2 z m 3,-10 c 0,-0.825 0.60653,-3.075 1.34784,-5 0.74131,-1.925 1.34784,-2.825 1.34784,-2 0,0.825 -0.60653,3.075 -1.34784,5 -0.74131,1.925 -1.34784,2.825 -1.34784,2 z m 3.98841,-13 c 0,-0.825 0.38674,-2.4 0.85943,-3.5 0.54172,-1.26064 0.85943,-1.44548 0.85943,-0.5 0,0.825 -0.38674,2.4 -0.85943,3.5 -0.54172,1.26064 -0.85943,1.44548 -0.85943,0.5 z m 3.01159,-10 c 0,-0.825 0.60653,-3.075 1.34784,-5 0.74131,-1.925 1.34784,-2.825 1.34784,-2 0,0.825 -0.60653,3.075 -1.34784,5 -0.74131,1.925 -1.34784,2.825 -1.34784,2 z m 3,-10 c 0,-0.825 0.60653,-3.075 1.34784,-5 0.74131,-1.925 1.34784,-2.825 1.34784,-2 0,0.825 -0.60653,3.075 -1.34784,5 -0.74131,1.925 -1.34784,2.825 -1.34784,2 z m 3.98841,-13 c 0,-0.825 0.38674,-2.4 0.85943,-3.5 0.54172,-1.26064 0.85943,-1.44548 0.85943,-0.5 0,0.825 -0.38674,2.4 -0.85943,3.5 -0.54172,1.26064 -0.85943,1.44548 -0.85943,0.5 z m 3,-10 c 0,-0.825 0.38674,-2.4 0.85943,-3.5 0.54172,-1.26064 0.85943,-1.44548 0.85943,-0.5 0,0.825 -0.38674,2.4 -0.85943,3.5 -0.54172,1.26064 -0.85943,1.44548 -0.85943,0.5 z m 3.01159,-10 c 0,-0.825 0.60653,-3.075 1.34784,-5 0.74131,-1.925 1.34784,-2.825 1.34784,-2 0,0.825 -0.60653,3.075 -1.34784,5 -0.74131,1.925 -1.34784,2.825 -1.34784,2 z m 3,-10 c 0,-0.825 0.60653,-3.075 1.34784,-5 0.74131,-1.925 1.34784,-2.825 1.34784,-2 0,0.825 -0.60653,3.075 -1.34784,5 -0.74131,1.925 -1.34784,2.825 -1.34784,2 z m 3.98841,-13 c 0,-0.825 0.38674,-2.4 0.85943,-3.5 0.54172,-1.26064 0.85943,-1.44548 0.85943,-0.5 0,0.825 -0.38674,2.4 -0.85943,3.5 -0.54172,1.26064 -0.85943,1.44548 -0.85943,0.5 z m 3.01159,-10 c 0,-0.825 0.60653,-3.075 1.34784,-5 0.74131,-1.925 1.34784,-2.825 1.34784,-2 0,0.825 -0.60653,3.075 -1.34784,5 -0.74131,1.925 -1.34784,2.825 -1.34784,2 z m 3,-10 c 0,-0.825 0.60653,-3.075 1.34784,-5 0.74131,-1.925 1.34784,-2.825 1.34784,-2 0,0.825 -0.60653,3.075 -1.34784,5 -0.74131,1.925 -1.34784,2.825 -1.34784,2 z m 3.98841,-13 c 0,-0.825 0.38674,-2.4 0.85943,-3.5 0.54172,-1.26064 0.85943,-1.44548 0.85943,-0.5 0,0.825 -0.38674,2.4 -0.85943,3.5 -0.54172,1.26064 -0.85943,1.44548 -0.85943,0.5 z m 3,-10 c 0,-0.825 0.38674,-2.4 0.85943,-3.5 0.54172,-1.26064 0.85943,-1.44548 0.85943,-0.5 0,0.825 -0.38674,2.4 -0.85943,3.5 -0.54172,1.26064 -0.85943,1.44548 -0.85943,0.5 z m 3.01159,-10 c 0,-0.825 0.60653,-3.075 1.34784,-5 0.74131,-1.925 1.34784,-2.825 1.34784,-2 0,0.825 -0.60653,3.075 -1.34784,5 -0.74131,1.925 -1.34784,2.825 -1.34784,2 z m 3.98841,-13 c 0,-0.825 0.38674,-2.4 0.85943,-3.5 0.54172,-1.26064 0.85943,-1.44548 0.85943,-0.5 0,0.825 -0.38674,2.4 -0.85943,3.5 -0.54172,1.26064 -0.85943,1.44548 -0.85943,0.5 z m 3,-10 c 0,-0.825 0.38674,-2.4 0.85943,-3.5 0.54172,-1.26064 0.85943,-1.44548 0.85943,-0.5 0,0.825 -0.38674,2.4 -0.85943,3.5 -0.54172,1.26064 -0.85943,1.44548 -0.85943,0.5 z m 3.01159,-10 c 0,-0.825 0.60653,-3.075 1.34784,-5 0.74131,-1.925 1.34784,-2.825 1.34784,-2 0,0.825 -0.60653,3.075 -1.34784,5 -0.74131,1.925 -1.34784,2.825 -1.34784,2 z m 3,-10 c 0,-0.825 0.60653,-3.075 1.34784,-5 0.74131,-1.925 1.34784,-2.825 1.34784,-2 0,0.825 -0.60653,3.075 -1.34784,5 -0.74131,1.925 -1.34784,2.825 -1.34784,2 z m 3.98841,-13 c 0,-0.825 0.38674,-2.4 0.85943,-3.5 0.54172,-1.26064 0.85943,-1.44548 0.85943,-0.5 0,0.825 -0.38674,2.4 -0.85943,3.5 -0.54172,1.26064 -0.85943,1.44548 -0.85943,0.5 z m 3.01159,-10 c 0,-0.825 0.60653,-3.075 1.34784,-5 0.74131,-1.925 1.34784,-2.825 1.34784,-2 0,0.825 -0.60653,3.075 -1.34784,5 -0.74131,1.925 -1.34784,2.825 -1.34784,2 z m 3,-10 c 0,-0.825 0.60653,-3.075 1.34784,-5 0.74131,-1.925 1.34784,-2.825 1.34784,-2 0,0.825 -0.60653,3.075 -1.34784,5 -0.74131,1.925 -1.34784,2.825 -1.34784,2 z m 3.98841,-13 c 0,-0.825 0.38674,-2.4 0.85943,-3.5 0.54172,-1.26064 0.85943,-1.44548 0.85943,-0.5 0,0.825 -0.38674,2.4 -0.85943,3.5 -0.54172,1.26064 -0.85943,1.44548 -0.85943,0.5 z m 3,-10 c 0,-0.825 0.38674,-2.4 0.85943,-3.5 0.54172,-1.26064 0.85943,-1.44548 0.85943,-0.5 0,0.825 -0.38674,2.4 -0.85943,3.5 -0.54172,1.26064 -0.85943,1.44548 -0.85943,0.5 z m 3.01159,-10 c 0,-0.825 0.60653,-3.075 1.34784,-5 0.74131,-1.925 1.34784,-2.825 1.34784,-2 0,0.825 -0.60653,3.075 -1.34784,5 -0.74131,1.925 -1.34784,2.825 -1.34784,2 z m 3,-10 c 0,-0.825 0.60653,-3.075 1.34784,-5 0.74131,-1.925 1.34784,-2.825 1.34784,-2 0,0.825 -0.60653,3.075 -1.34784,5 -0.74131,1.925 -1.34784,2.825 -1.34784,2 z m 3.98841,-13 c 0,-0.825 0.38674,-2.4 0.85943,-3.5 0.54172,-1.260639 0.85943,-1.445479 0.85943,-0.5 0,0.825 -0.38674,2.4 -0.85943,3.5 -0.54172,1.260639 -0.85943,1.445479 -0.85943,0.5 z m 3.01159,-10 c 0,-0.825 0.60653,-3.075 1.34784,-5 0.74131,-1.925 1.34784,-2.825 1.34784,-2 0,0.825 -0.60653,3.075 -1.34784,5 -0.74131,1.925 -1.34784,2.825 -1.34784,2 z m 3,-10 c 0,-0.825 0.60653,-3.075 1.34784,-5 0.74131,-1.925 1.34784,-2.825 1.34784,-2 0,0.825 -0.60653,3.075 -1.34784,5 -0.74131,1.925 -1.34784,2.825 -1.34784,2 z m 3.98841,-13 c 0,-0.825 0.38674,-2.4 0.85943,-3.5 0.54172,-1.260639 0.85943,-1.445479 0.85943,-0.5 0,0.825 -0.38674,2.4 -0.85943,3.5 -0.54172,1.260639 -0.85943,1.445479 -0.85943,0.5 z m 3,-10 c 0,-0.825 0.38674,-2.4 0.85943,-3.5 0.54172,-1.260639 0.85943,-1.445479 0.85943,-0.5 0,0.825 -0.38674,2.4 -0.85943,3.5 -0.54172,1.260639 -0.85943,1.445479 -0.85943,0.5 z m 3.01159,-10 c 0,-0.825 0.60653,-3.075 1.34784,-5 0.74131,-1.925 1.34784,-2.825 1.34784,-2 0,0.825 -0.60653,3.075 -1.34784,5 -0.74131,1.925 -1.34784,2.825 -1.34784,2 z m 3,-10 c 0,-0.825 0.60653,-3.075 1.34784,-5 0.74131,-1.925 1.34784,-2.825 1.34784,-2 0,0.825 -0.60653,3.075 -1.34784,5 -0.74131,1.925 -1.34784,2.825 -1.34784,2 z"
       id="path4835"
       inkscape:connector-curvature="0" />
    <path
       style="fill:#2a2928;stroke-width:1.06940901"
       d="m 671.33758,-256.82484 v -280.24522 h 266.29618 c 160.68294,0 266.29624,0.3911 266.29624,0.98615 0,0.54237 -0.4312,1.14751 -0.9582,1.34475 -1.2257,0.45873 -166.1289,551.245995 -166.2248,555.201099 l -0.071,2.958443 H 854.00648 671.33758 Z"
       id="path4833"
       inkscape:connector-curvature="0" />
  </g>
</svg>
