<?xml version="1.0" encoding="UTF-8" standalone="no"?>
<!-- Created with Inkscape (http://www.inkscape.org/) -->

<svg
   xmlns:dc="http://purl.org/dc/elements/1.1/"
   xmlns:cc="http://creativecommons.org/ns#"
   xmlns:rdf="http://www.w3.org/1999/02/22-rdf-syntax-ns#"
   xmlns:svg="http://www.w3.org/2000/svg"
   xmlns="http://www.w3.org/2000/svg"
   xmlns:sodipodi="http://sodipodi.sourceforge.net/DTD/sodipodi-0.dtd"
   xmlns:inkscape="http://www.inkscape.org/namespaces/inkscape"
   version="1.1"
   id="svg4841"
   width="396.79999"
   height="166.72"
   viewBox="0 0 396.79999 166.72"
   sodipodi:docname="para2.svg"
   inkscape:version="0.92.1 r15371">
  <metadata
     id="metadata4847">
    <rdf:RDF>
      <cc:Work
         rdf:about="">
        <dc:format>image/svg+xml</dc:format>
        <dc:type
           rdf:resource="http://purl.org/dc/dcmitype/StillImage" />
        <dc:title></dc:title>
      </cc:Work>
    </rdf:RDF>
  </metadata>
  <defs
     id="defs4845" />
  <sodipodi:namedview
     pagecolor="#ffffff"
     bordercolor="#666666"
     borderopacity="1"
     objecttolerance="10"
     gridtolerance="10"
     guidetolerance="10"
     inkscape:pageopacity="0"
     inkscape:pageshadow="2"
     inkscape:window-width="1440"
     inkscape:window-height="838"
     id="namedview4843"
     showgrid="false"
     inkscape:zoom="0.79133067"
     inkscape:cx="71.398724"
     inkscape:cy="83.360001"
     inkscape:window-x="-8"
     inkscape:window-y="-8"
     inkscape:window-maximized="1"
     inkscape:current-layer="g4851" />
  <g
     id="g4851"
     transform="translate(-233.78343,246.42037)">
    <path
       style="fill:#e7d1d0;stroke-width:0.31999999"
       d="M 244.50623,83.493763 C 229.85116,38.074166 217.91636,0.85696749 217.98446,0.78887331 c 0.0681,-0.0680942 12.11358,37.03841969 26.76775,82.45891569 14.65416,45.420501 26.58896,82.637701 26.52177,82.704891 -0.0672,0.0672 -12.11268,-37.03932 -26.76775,-82.458917 z"
       id="path4859"
       inkscape:connector-curvature="0" />
    <path
       style="fill:#cea2a0;stroke-width:0.31999999"
       d="m 268.66285,157.57714 c -0.1177,-0.46896 -0.15229,-0.91437 -0.0769,-0.9898 0.0754,-0.0754 0.23344,0.24655 0.35115,0.71552 0.1177,0.46896 0.15229,0.91437 0.0769,0.9898 -0.0754,0.0754 -0.23345,-0.24655 -0.35115,-0.71552 z m -3.35759,-10.56381 c 0.0154,-0.37278 0.0912,-0.4486 0.19333,-0.19333 0.0924,0.231 0.0811,0.507 -0.0252,0.61333 -0.10633,0.10634 -0.18196,-0.0827 -0.16807,-0.42 z m -3.2,-9.92 c 0.0154,-0.37278 0.0912,-0.4486 0.19333,-0.19333 0.0924,0.231 0.0811,0.507 -0.0252,0.61333 -0.10633,0.10634 -0.18196,-0.0827 -0.16807,-0.42 z m -3.2,-9.92 c 0.0154,-0.37278 0.0912,-0.4486 0.19333,-0.19333 0.0924,0.231 0.0811,0.507 -0.0253,0.61333 -0.10633,0.10634 -0.18196,-0.0827 -0.16807,-0.42 z m -3.2,-9.92 c 0.0154,-0.37278 0.0912,-0.4486 0.19333,-0.19333 0.0924,0.231 0.0811,0.507 -0.0252,0.61333 -0.10633,0.10634 -0.18196,-0.0827 -0.16807,-0.42 z m -3.2,-9.92 c 0.0154,-0.37278 0.0912,-0.4486 0.19333,-0.19333 0.0924,0.231 0.0811,0.507 -0.0252,0.61333 -0.10633,0.10634 -0.18196,-0.0827 -0.16807,-0.42 z m -3.2,-9.919996 c 0.0154,-0.372784 0.0912,-0.448608 0.19333,-0.193334 0.0924,0.230998 0.0811,0.507002 -0.0252,0.613334 -0.10633,0.106333 -0.18196,-0.08267 -0.16807,-0.42 z m -3.2,-9.92 c 0.0154,-0.372784 0.0912,-0.448608 0.19333,-0.193334 0.0924,0.230998 0.0811,0.507002 -0.0252,0.613334 -0.10633,0.106333 -0.18196,-0.08267 -0.16807,-0.42 z m -3.2,-9.92 c 0.0154,-0.372784 0.0912,-0.448608 0.19333,-0.193334 0.0924,0.230998 0.0811,0.506998 -0.0252,0.613334 -0.10633,0.106333 -0.18196,-0.08267 -0.16807,-0.42 z m -3.2,-9.92 c 0.0154,-0.372784 0.0912,-0.448608 0.19333,-0.193334 0.0924,0.230998 0.0811,0.506998 -0.0252,0.613334 -0.10633,0.106333 -0.18196,-0.08267 -0.16807,-0.42 z m -3.2,-9.92 c 0.0154,-0.372784 0.0912,-0.448608 0.19333,-0.193334 0.0924,0.230998 0.0811,0.506998 -0.0252,0.613334 -0.10633,0.106333 -0.18196,-0.08267 -0.16807,-0.42 z m -3.2,-9.92 c 0.0154,-0.372784 0.0912,-0.448608 0.19333,-0.193334 0.0924,0.230998 0.0811,0.506998 -0.0252,0.613334 -0.10633,0.106333 -0.18196,-0.08267 -0.16807,-0.42 z m -3.2,-9.92 c 0.0154,-0.372784 0.0912,-0.448608 0.19333,-0.193334 0.0924,0.230998 0.0811,0.506998 -0.0252,0.613334 -0.10633,0.106333 -0.18196,-0.08267 -0.16807,-0.42 z m -3.36241,-10.236191 c -0.1177,-0.468964 -0.15229,-0.914377 -0.0769,-0.989805 0.0754,-0.07543 0.23344,0.246555 0.35115,0.715519 0.1177,0.468964 0.15229,0.914377 0.0769,0.989805 -0.0754,0.07543 -0.23345,-0.246555 -0.35115,-0.715519 z m -3.2,-9.92 c -0.1177,-0.468964 -0.15229,-0.914377 -0.0769,-0.989805 0.0754,-0.07543 0.23344,0.246555 0.35115,0.715519 0.1177,0.468964 0.15229,0.914377 0.0769,0.989805 -0.0754,0.07543 -0.23345,-0.246555 -0.35115,-0.715519 z m -3.2,-9.9200003 c -0.1177,-0.4689641 -0.15229,-0.9143763 -0.0769,-0.9898048 0.0754,-0.075429 0.23344,0.2465552 0.35115,0.7155194 0.1177,0.4689641 0.15229,0.9143763 0.0769,0.9898048 -0.0754,0.075429 -0.23345,-0.2465552 -0.35115,-0.7155194 z"
       id="path4857"
       inkscape:connector-curvature="0" />
    <path
       style="fill:#9c413d;stroke-width:0.31999999"
       d="m 271.86057,165.9862 c 0.12017,-0.31559 0.2991,-0.49319 0.39762,-0.39467 0.0985,0.0985 2.1e-4,0.35674 -0.21849,0.5738 -0.31604,0.31369 -0.35279,0.27693 -0.17913,-0.17913 z"
       id="path4855"
       inkscape:connector-curvature="0" />
    <path
       style="fill:#95322d;stroke-width:0.35509425"
       d="m 503.13663,-72.914613 c 0.0543,-1.194893 -58.85775,-182.314187 -59.44884,-182.769447 -0.28062,-0.21614 -0.51022,-0.49488 -0.51022,-0.61943 0,-0.12453 44.7253,-0.22644 99.38955,-0.22644 h 99.38955 v 92.20586 92.205861 h -69.42812 -69.42813 z"
       id="path4853"
       inkscape:connector-curvature="0" />
  </g>
</svg>
